<?xml version="1.0" encoding="UTF-8"?>
<!DOCTYPE svg PUBLIC "-//W3C//DTD SVG 1.1//EN" "http://www.w3.org/Graphics/SVG/1.1/DTD/svg11.dtd">
<svg xmlns="http://www.w3.org/2000/svg" version="1.1" viewBox="0 0 221 221" stroke="none">
	<rect width="100%" height="100%" fill="#FFFFFF"/>
	<path d="M100,100h1v1h-1z M101,100h1v1h-1z M102,100h1v1h-1z M103,100h1v1h-1z M104,100h1v1h-1z M105,100h1v1h-1z M106,100h1v1h-1z M112,100h1v1h-1z M114,100h1v1h-1z M115,100h1v1h-1z M116,100h1v1h-1z M117,100h1v1h-1z M118,100h1v1h-1z M119,100h1v1h-1z M120,100h1v1h-1z M100,101h1v1h-1z M106,101h1v1h-1z M109,101h1v1h-1z M111,101h1v1h-1z M114,101h1v1h-1z M120,101h1v1h-1z M100,102h1v1h-1z M102,102h1v1h-1z M103,102h1v1h-1z M104,102h1v1h-1z M106,102h1v1h-1z M108,102h1v1h-1z M110,102h1v1h-1z M111,102h1v1h-1z M112,102h1v1h-1z M114,102h1v1h-1z M116,102h1v1h-1z M117,102h1v1h-1z M118,102h1v1h-1z M120,102h1v1h-1z M100,103h1v1h-1z M102,103h1v1h-1z M103,103h1v1h-1z M104,103h1v1h-1z M106,103h1v1h-1z M108,103h1v1h-1z M114,103h1v1h-1z M116,103h1v1h-1z M117,103h1v1h-1z M118,103h1v1h-1z M120,103h1v1h-1z M100,104h1v1h-1z M102,104h1v1h-1z M103,104h1v1h-1z M104,104h1v1h-1z M106,104h1v1h-1z M108,104h1v1h-1z M109,104h1v1h-1z M112,104h1v1h-1z M114,104h1v1h-1z M116,104h1v1h-1z M117,104h1v1h-1z M118,104h1v1h-1z M120,104h1v1h-1z M100,105h1v1h-1z M106,105h1v1h-1z M108,105h1v1h-1z M109,105h1v1h-1z M110,105h1v1h-1z M111,105h1v1h-1z M114,105h1v1h-1z M120,105h1v1h-1z M100,106h1v1h-1z M101,106h1v1h-1z M102,106h1v1h-1z M103,106h1v1h-1z M104,106h1v1h-1z M105,106h1v1h-1z M106,106h1v1h-1z M108,106h1v1h-1z M110,106h1v1h-1z M112,106h1v1h-1z M114,106h1v1h-1z M115,106h1v1h-1z M116,106h1v1h-1z M117,106h1v1h-1z M118,106h1v1h-1z M119,106h1v1h-1z M120,106h1v1h-1z M108,107h1v1h-1z M110,107h1v1h-1z M100,108h1v1h-1z M102,108h1v1h-1z M103,108h1v1h-1z M104,108h1v1h-1z M105,108h1v1h-1z M106,108h1v1h-1z M109,108h1v1h-1z M110,108h1v1h-1z M111,108h1v1h-1z M114,108h1v1h-1z M115,108h1v1h-1z M116,108h1v1h-1z M117,108h1v1h-1z M118,108h1v1h-1z M103,109h1v1h-1z M104,109h1v1h-1z M107,109h1v1h-1z M108,109h1v1h-1z M112,109h1v1h-1z M113,109h1v1h-1z M116,109h1v1h-1z M117,109h1v1h-1z M118,109h1v1h-1z M120,109h1v1h-1z M103,110h1v1h-1z M106,110h1v1h-1z M108,110h1v1h-1z M109,110h1v1h-1z M110,110h1v1h-1z M112,110h1v1h-1z M113,110h1v1h-1z M114,110h1v1h-1z M117,110h1v1h-1z M118,110h1v1h-1z M119,110h1v1h-1z M101,111h1v1h-1z M102,111h1v1h-1z M105,111h1v1h-1z M107,111h1v1h-1z M110,111h1v1h-1z M111,111h1v1h-1z M112,111h1v1h-1z M113,111h1v1h-1z M115,111h1v1h-1z M117,111h1v1h-1z M118,111h1v1h-1z M100,112h1v1h-1z M101,112h1v1h-1z M103,112h1v1h-1z M104,112h1v1h-1z M105,112h1v1h-1z M106,112h1v1h-1z M108,112h1v1h-1z M112,112h1v1h-1z M114,112h1v1h-1z M115,112h1v1h-1z M120,112h1v1h-1z M108,113h1v1h-1z M113,113h1v1h-1z M114,113h1v1h-1z M115,113h1v1h-1z M116,113h1v1h-1z M117,113h1v1h-1z M100,114h1v1h-1z M101,114h1v1h-1z M102,114h1v1h-1z M103,114h1v1h-1z M104,114h1v1h-1z M105,114h1v1h-1z M106,114h1v1h-1z M109,114h1v1h-1z M110,114h1v1h-1z M112,114h1v1h-1z M113,114h1v1h-1z M114,114h1v1h-1z M115,114h1v1h-1z M118,114h1v1h-1z M119,114h1v1h-1z M100,115h1v1h-1z M106,115h1v1h-1z M108,115h1v1h-1z M110,115h1v1h-1z M112,115h1v1h-1z M113,115h1v1h-1z M115,115h1v1h-1z M117,115h1v1h-1z M118,115h1v1h-1z M119,115h1v1h-1z M100,116h1v1h-1z M102,116h1v1h-1z M103,116h1v1h-1z M104,116h1v1h-1z M106,116h1v1h-1z M108,116h1v1h-1z M109,116h1v1h-1z M111,116h1v1h-1z M112,116h1v1h-1z M113,116h1v1h-1z M114,116h1v1h-1z M116,116h1v1h-1z M119,116h1v1h-1z M120,116h1v1h-1z M100,117h1v1h-1z M102,117h1v1h-1z M103,117h1v1h-1z M104,117h1v1h-1z M106,117h1v1h-1z M108,117h1v1h-1z M110,117h1v1h-1z M115,117h1v1h-1z M116,117h1v1h-1z M117,117h1v1h-1z M100,118h1v1h-1z M102,118h1v1h-1z M103,118h1v1h-1z M104,118h1v1h-1z M106,118h1v1h-1z M108,118h1v1h-1z M109,118h1v1h-1z M110,118h1v1h-1z M111,118h1v1h-1z M112,118h1v1h-1z M114,118h1v1h-1z M115,118h1v1h-1z M118,118h1v1h-1z M100,119h1v1h-1z M106,119h1v1h-1z M110,119h1v1h-1z M112,119h1v1h-1z M113,119h1v1h-1z M116,119h1v1h-1z M117,119h1v1h-1z M118,119h1v1h-1z M100,120h1v1h-1z M101,120h1v1h-1z M102,120h1v1h-1z M103,120h1v1h-1z M104,120h1v1h-1z M105,120h1v1h-1z M106,120h1v1h-1z M108,120h1v1h-1z M109,120h1v1h-1z M111,120h1v1h-1z M114,120h1v1h-1z M116,120h1v1h-1z M119,120h1v1h-1z" fill="#000000"/>
</svg>