<?xml version="1.0" encoding="UTF-8"?>
<!DOCTYPE svg PUBLIC "-//W3C//DTD SVG 1.1//EN" "http://www.w3.org/Graphics/SVG/1.1/DTD/svg11.dtd">
<svg xmlns="http://www.w3.org/2000/svg" version="1.1" viewBox="0 0 93 93" stroke="none">
	<rect width="100%" height="100%" fill="#FFFFFF"/>
	<path d="M4,4h1v1h-1z M5,4h1v1h-1z M6,4h1v1h-1z M7,4h1v1h-1z M8,4h1v1h-1z M9,4h1v1h-1z M10,4h1v1h-1z M14,4h1v1h-1z M15,4h1v1h-1z M16,4h1v1h-1z M19,4h1v1h-1z M20,4h1v1h-1z M21,4h1v1h-1z M24,4h1v1h-1z M25,4h1v1h-1z M27,4h1v1h-1z M28,4h1v1h-1z M30,4h1v1h-1z M33,4h1v1h-1z M35,4h1v1h-1z M36,4h1v1h-1z M37,4h1v1h-1z M43,4h1v1h-1z M45,4h1v1h-1z M46,4h1v1h-1z M47,4h1v1h-1z M48,4h1v1h-1z M49,4h1v1h-1z M51,4h1v1h-1z M53,4h1v1h-1z M55,4h1v1h-1z M56,4h1v1h-1z M57,4h1v1h-1z M58,4h1v1h-1z M61,4h1v1h-1z M62,4h1v1h-1z M63,4h1v1h-1z M64,4h1v1h-1z M66,4h1v1h-1z M68,4h1v1h-1z M72,4h1v1h-1z M73,4h1v1h-1z M77,4h1v1h-1z M78,4h1v1h-1z M80,4h1v1h-1z M82,4h1v1h-1z M83,4h1v1h-1z M84,4h1v1h-1z M85,4h1v1h-1z M86,4h1v1h-1z M87,4h1v1h-1z M88,4h1v1h-1z M4,5h1v1h-1z M10,5h1v1h-1z M15,5h1v1h-1z M16,5h1v1h-1z M17,5h1v1h-1z M21,5h1v1h-1z M27,5h1v1h-1z M28,5h1v1h-1z M29,5h1v1h-1z M31,5h1v1h-1z M36,5h1v1h-1z M37,5h1v1h-1z M38,5h1v1h-1z M39,5h1v1h-1z M41,5h1v1h-1z M42,5h1v1h-1z M47,5h1v1h-1z M48,5h1v1h-1z M50,5h1v1h-1z M51,5h1v1h-1z M52,5h1v1h-1z M56,5h1v1h-1z M57,5h1v1h-1z M62,5h1v1h-1z M63,5h1v1h-1z M65,5h1v1h-1z M69,5h1v1h-1z M70,5h1v1h-1z M76,5h1v1h-1z M78,5h1v1h-1z M79,5h1v1h-1z M82,5h1v1h-1z M88,5h1v1h-1z M4,6h1v1h-1z M6,6h1v1h-1z M7,6h1v1h-1z M8,6h1v1h-1z M10,6h1v1h-1z M12,6h1v1h-1z M13,6h1v1h-1z M14,6h1v1h-1z M16,6h1v1h-1z M25,6h1v1h-1z M29,6h1v1h-1z M32,6h1v1h-1z M33,6h1v1h-1z M34,6h1v1h-1z M37,6h1v1h-1z M39,6h1v1h-1z M41,6h1v1h-1z M43,6h1v1h-1z M44,6h1v1h-1z M45,6h1v1h-1z M46,6h1v1h-1z M49,6h1v1h-1z M51,6h1v1h-1z M56,6h1v1h-1z M57,6h1v1h-1z M59,6h1v1h-1z M60,6h1v1h-1z M62,6h1v1h-1z M66,6h1v1h-1z M70,6h1v1h-1z M72,6h1v1h-1z M74,6h1v1h-1z M77,6h1v1h-1z M78,6h1v1h-1z M82,6h1v1h-1z M84,6h1v1h-1z M85,6h1v1h-1z M86,6h1v1h-1z M88,6h1v1h-1z M4,7h1v1h-1z M6,7h1v1h-1z M7,7h1v1h-1z M8,7h1v1h-1z M10,7h1v1h-1z M12,7h1v1h-1z M13,7h1v1h-1z M17,7h1v1h-1z M18,7h1v1h-1z M19,7h1v1h-1z M24,7h1v1h-1z M25,7h1v1h-1z M26,7h1v1h-1z M27,7h1v1h-1z M29,7h1v1h-1z M30,7h1v1h-1z M31,7h1v1h-1z M34,7h1v1h-1z M40,7h1v1h-1z M42,7h1v1h-1z M43,7h1v1h-1z M45,7h1v1h-1z M46,7h1v1h-1z M47,7h1v1h-1z M49,7h1v1h-1z M50,7h1v1h-1z M51,7h1v1h-1z M52,7h1v1h-1z M53,7h1v1h-1z M54,7h1v1h-1z M58,7h1v1h-1z M60,7h1v1h-1z M61,7h1v1h-1z M62,7h1v1h-1z M65,7h1v1h-1z M67,7h1v1h-1z M68,7h1v1h-1z M72,7h1v1h-1z M73,7h1v1h-1z M74,7h1v1h-1z M76,7h1v1h-1z M79,7h1v1h-1z M82,7h1v1h-1z M84,7h1v1h-1z M85,7h1v1h-1z M86,7h1v1h-1z M88,7h1v1h-1z M4,8h1v1h-1z M6,8h1v1h-1z M7,8h1v1h-1z M8,8h1v1h-1z M10,8h1v1h-1z M12,8h1v1h-1z M17,8h1v1h-1z M19,8h1v1h-1z M22,8h1v1h-1z M23,8h1v1h-1z M25,8h1v1h-1z M28,8h1v1h-1z M29,8h1v1h-1z M31,8h1v1h-1z M32,8h1v1h-1z M33,8h1v1h-1z M34,8h1v1h-1z M35,8h1v1h-1z M36,8h1v1h-1z M37,8h1v1h-1z M39,8h1v1h-1z M40,8h1v1h-1z M43,8h1v1h-1z M44,8h1v1h-1z M45,8h1v1h-1z M46,8h1v1h-1z M48,8h1v1h-1z M49,8h1v1h-1z M53,8h1v1h-1z M55,8h1v1h-1z M56,8h1v1h-1z M57,8h1v1h-1z M58,8h1v1h-1z M59,8h1v1h-1z M60,8h1v1h-1z M61,8h1v1h-1z M64,8h1v1h-1z M66,8h1v1h-1z M67,8h1v1h-1z M68,8h1v1h-1z M71,8h1v1h-1z M73,8h1v1h-1z M75,8h1v1h-1z M76,8h1v1h-1z M77,8h1v1h-1z M78,8h1v1h-1z M82,8h1v1h-1z M84,8h1v1h-1z M85,8h1v1h-1z M86,8h1v1h-1z M88,8h1v1h-1z M4,9h1v1h-1z M10,9h1v1h-1z M12,9h1v1h-1z M14,9h1v1h-1z M15,9h1v1h-1z M16,9h1v1h-1z M17,9h1v1h-1z M19,9h1v1h-1z M21,9h1v1h-1z M24,9h1v1h-1z M25,9h1v1h-1z M27,9h1v1h-1z M28,9h1v1h-1z M29,9h1v1h-1z M32,9h1v1h-1z M36,9h1v1h-1z M41,9h1v1h-1z M42,9h1v1h-1z M45,9h1v1h-1z M47,9h1v1h-1z M50,9h1v1h-1z M51,9h1v1h-1z M53,9h1v1h-1z M54,9h1v1h-1z M56,9h1v1h-1z M60,9h1v1h-1z M63,9h1v1h-1z M65,9h1v1h-1z M67,9h1v1h-1z M68,9h1v1h-1z M71,9h1v1h-1z M72,9h1v1h-1z M73,9h1v1h-1z M74,9h1v1h-1z M76,9h1v1h-1z M77,9h1v1h-1z M79,9h1v1h-1z M82,9h1v1h-1z M88,9h1v1h-1z M4,10h1v1h-1z M5,10h1v1h-1z M6,10h1v1h-1z M7,10h1v1h-1z M8,10h1v1h-1z M9,10h1v1h-1z M10,10h1v1h-1z M12,10h1v1h-1z M14,10h1v1h-1z M16,10h1v1h-1z M18,10h1v1h-1z M20,10h1v1h-1z M22,10h1v1h-1z M24,10h1v1h-1z M26,10h1v1h-1z M28,10h1v1h-1z M30,10h1v1h-1z M32,10h1v1h-1z M34,10h1v1h-1z M36,10h1v1h-1z M38,10h1v1h-1z M40,10h1v1h-1z M42,10h1v1h-1z M44,10h1v1h-1z M46,10h1v1h-1z M48,10h1v1h-1z M50,10h1v1h-1z M52,10h1v1h-1z M54,10h1v1h-1z M56,10h1v1h-1z M58,10h1v1h-1z M60,10h1v1h-1z M62,10h1v1h-1z M64,10h1v1h-1z M66,10h1v1h-1z M68,10h1v1h-1z M70,10h1v1h-1z M72,10h1v1h-1z M74,10h1v1h-1z M76,10h1v1h-1z M78,10h1v1h-1z M80,10h1v1h-1z M82,10h1v1h-1z M83,10h1v1h-1z M84,10h1v1h-1z M85,10h1v1h-1z M86,10h1v1h-1z M87,10h1v1h-1z M88,10h1v1h-1z M12,11h1v1h-1z M14,11h1v1h-1z M15,11h1v1h-1z M22,11h1v1h-1z M23,11h1v1h-1z M24,11h1v1h-1z M25,11h1v1h-1z M28,11h1v1h-1z M29,11h1v1h-1z M30,11h1v1h-1z M31,11h1v1h-1z M32,11h1v1h-1z M36,11h1v1h-1z M39,11h1v1h-1z M41,11h1v1h-1z M42,11h1v1h-1z M44,11h1v1h-1z M46,11h1v1h-1z M47,11h1v1h-1z M48,11h1v1h-1z M49,11h1v1h-1z M50,11h1v1h-1z M53,11h1v1h-1z M54,11h1v1h-1z M55,11h1v1h-1z M56,11h1v1h-1z M60,11h1v1h-1z M67,11h1v1h-1z M68,11h1v1h-1z M69,11h1v1h-1z M70,11h1v1h-1z M72,11h1v1h-1z M73,11h1v1h-1z M74,11h1v1h-1z M75,11h1v1h-1z M77,11h1v1h-1z M78,11h1v1h-1z M79,11h1v1h-1z M4,12h1v1h-1z M6,12h1v1h-1z M7,12h1v1h-1z M8,12h1v1h-1z M9,12h1v1h-1z M10,12h1v1h-1z M14,12h1v1h-1z M15,12h1v1h-1z M16,12h1v1h-1z M20,12h1v1h-1z M21,12h1v1h-1z M23,12h1v1h-1z M28,12h1v1h-1z M31,12h1v1h-1z M32,12h1v1h-1z M33,12h1v1h-1z M34,12h1v1h-1z M35,12h1v1h-1z M36,12h1v1h-1z M38,12h1v1h-1z M39,12h1v1h-1z M40,12h1v1h-1z M45,12h1v1h-1z M46,12h1v1h-1z M47,12h1v1h-1z M49,12h1v1h-1z M51,12h1v1h-1z M52,12h1v1h-1z M54,12h1v1h-1z M56,12h1v1h-1z M57,12h1v1h-1z M58,12h1v1h-1z M59,12h1v1h-1z M60,12h1v1h-1z M61,12h1v1h-1z M62,12h1v1h-1z M64,12h1v1h-1z M67,12h1v1h-1z M68,12h1v1h-1z M70,12h1v1h-1z M73,12h1v1h-1z M76,12h1v1h-1z M77,12h1v1h-1z M82,12h1v1h-1z M83,12h1v1h-1z M84,12h1v1h-1z M85,12h1v1h-1z M86,12h1v1h-1z M6,13h1v1h-1z M7,13h1v1h-1z M9,13h1v1h-1z M11,13h1v1h-1z M12,13h1v1h-1z M15,13h1v1h-1z M17,13h1v1h-1z M18,13h1v1h-1z M19,13h1v1h-1z M21,13h1v1h-1z M22,13h1v1h-1z M23,13h1v1h-1z M24,13h1v1h-1z M25,13h1v1h-1z M26,13h1v1h-1z M27,13h1v1h-1z M28,13h1v1h-1z M33,13h1v1h-1z M35,13h1v1h-1z M40,13h1v1h-1z M41,13h1v1h-1z M46,13h1v1h-1z M47,13h1v1h-1z M48,13h1v1h-1z M52,13h1v1h-1z M53,13h1v1h-1z M56,13h1v1h-1z M57,13h1v1h-1z M58,13h1v1h-1z M60,13h1v1h-1z M61,13h1v1h-1z M62,13h1v1h-1z M66,13h1v1h-1z M67,13h1v1h-1z M70,13h1v1h-1z M71,13h1v1h-1z M72,13h1v1h-1z M73,13h1v1h-1z M74,13h1v1h-1z M79,13h1v1h-1z M80,13h1v1h-1z M84,13h1v1h-1z M86,13h1v1h-1z M87,13h1v1h-1z M5,14h1v1h-1z M6,14h1v1h-1z M8,14h1v1h-1z M10,14h1v1h-1z M11,14h1v1h-1z M13,14h1v1h-1z M15,14h1v1h-1z M16,14h1v1h-1z M20,14h1v1h-1z M21,14h1v1h-1z M25,14h1v1h-1z M28,14h1v1h-1z M37,14h1v1h-1z M38,14h1v1h-1z M41,14h1v1h-1z M45,14h1v1h-1z M51,14h1v1h-1z M52,14h1v1h-1z M53,14h1v1h-1z M54,14h1v1h-1z M55,14h1v1h-1z M57,14h1v1h-1z M61,14h1v1h-1z M62,14h1v1h-1z M65,14h1v1h-1z M66,14h1v1h-1z M67,14h1v1h-1z M68,14h1v1h-1z M71,14h1v1h-1z M72,14h1v1h-1z M73,14h1v1h-1z M74,14h1v1h-1z M75,14h1v1h-1z M77,14h1v1h-1z M78,14h1v1h-1z M80,14h1v1h-1z M81,14h1v1h-1z M82,14h1v1h-1z M84,14h1v1h-1z M88,14h1v1h-1z M4,15h1v1h-1z M6,15h1v1h-1z M7,15h1v1h-1z M9,15h1v1h-1z M12,15h1v1h-1z M17,15h1v1h-1z M23,15h1v1h-1z M24,15h1v1h-1z M26,15h1v1h-1z M28,15h1v1h-1z M29,15h1v1h-1z M31,15h1v1h-1z M32,15h1v1h-1z M33,15h1v1h-1z M34,15h1v1h-1z M35,15h1v1h-1z M36,15h1v1h-1z M43,15h1v1h-1z M44,15h1v1h-1z M47,15h1v1h-1z M48,15h1v1h-1z M54,15h1v1h-1z M56,15h1v1h-1z M57,15h1v1h-1z M60,15h1v1h-1z M62,15h1v1h-1z M63,15h1v1h-1z M64,15h1v1h-1z M65,15h1v1h-1z M67,15h1v1h-1z M68,15h1v1h-1z M70,15h1v1h-1z M72,15h1v1h-1z M73,15h1v1h-1z M75,15h1v1h-1z M77,15h1v1h-1z M78,15h1v1h-1z M79,15h1v1h-1z M80,15h1v1h-1z M83,15h1v1h-1z M87,15h1v1h-1z M88,15h1v1h-1z M6,16h1v1h-1z M10,16h1v1h-1z M13,16h1v1h-1z M14,16h1v1h-1z M15,16h1v1h-1z M16,16h1v1h-1z M17,16h1v1h-1z M21,16h1v1h-1z M22,16h1v1h-1z M24,16h1v1h-1z M26,16h1v1h-1z M27,16h1v1h-1z M29,16h1v1h-1z M32,16h1v1h-1z M35,16h1v1h-1z M38,16h1v1h-1z M40,16h1v1h-1z M42,16h1v1h-1z M43,16h1v1h-1z M45,16h1v1h-1z M46,16h1v1h-1z M47,16h1v1h-1z M50,16h1v1h-1z M51,16h1v1h-1z M52,16h1v1h-1z M53,16h1v1h-1z M55,16h1v1h-1z M60,16h1v1h-1z M61,16h1v1h-1z M65,16h1v1h-1z M66,16h1v1h-1z M67,16h1v1h-1z M68,16h1v1h-1z M72,16h1v1h-1z M73,16h1v1h-1z M74,16h1v1h-1z M76,16h1v1h-1z M79,16h1v1h-1z M80,16h1v1h-1z M81,16h1v1h-1z M82,16h1v1h-1z M85,16h1v1h-1z M87,16h1v1h-1z M88,16h1v1h-1z M4,17h1v1h-1z M7,17h1v1h-1z M11,17h1v1h-1z M12,17h1v1h-1z M14,17h1v1h-1z M17,17h1v1h-1z M19,17h1v1h-1z M21,17h1v1h-1z M22,17h1v1h-1z M23,17h1v1h-1z M28,17h1v1h-1z M30,17h1v1h-1z M31,17h1v1h-1z M33,17h1v1h-1z M34,17h1v1h-1z M35,17h1v1h-1z M39,17h1v1h-1z M41,17h1v1h-1z M44,17h1v1h-1z M45,17h1v1h-1z M46,17h1v1h-1z M47,17h1v1h-1z M49,17h1v1h-1z M51,17h1v1h-1z M55,17h1v1h-1z M61,17h1v1h-1z M64,17h1v1h-1z M66,17h1v1h-1z M67,17h1v1h-1z M71,17h1v1h-1z M73,17h1v1h-1z M74,17h1v1h-1z M75,17h1v1h-1z M76,17h1v1h-1z M79,17h1v1h-1z M82,17h1v1h-1z M83,17h1v1h-1z M84,17h1v1h-1z M86,17h1v1h-1z M4,18h1v1h-1z M6,18h1v1h-1z M10,18h1v1h-1z M14,18h1v1h-1z M15,18h1v1h-1z M17,18h1v1h-1z M18,18h1v1h-1z M20,18h1v1h-1z M23,18h1v1h-1z M26,18h1v1h-1z M29,18h1v1h-1z M30,18h1v1h-1z M31,18h1v1h-1z M32,18h1v1h-1z M34,18h1v1h-1z M36,18h1v1h-1z M38,18h1v1h-1z M39,18h1v1h-1z M40,18h1v1h-1z M41,18h1v1h-1z M45,18h1v1h-1z M46,18h1v1h-1z M47,18h1v1h-1z M48,18h1v1h-1z M50,18h1v1h-1z M51,18h1v1h-1z M53,18h1v1h-1z M54,18h1v1h-1z M57,18h1v1h-1z M59,18h1v1h-1z M65,18h1v1h-1z M66,18h1v1h-1z M67,18h1v1h-1z M69,18h1v1h-1z M71,18h1v1h-1z M72,18h1v1h-1z M73,18h1v1h-1z M74,18h1v1h-1z M77,18h1v1h-1z M78,18h1v1h-1z M80,18h1v1h-1z M82,18h1v1h-1z M84,18h1v1h-1z M86,18h1v1h-1z M87,18h1v1h-1z M88,18h1v1h-1z M4,19h1v1h-1z M6,19h1v1h-1z M7,19h1v1h-1z M8,19h1v1h-1z M13,19h1v1h-1z M14,19h1v1h-1z M16,19h1v1h-1z M20,19h1v1h-1z M23,19h1v1h-1z M25,19h1v1h-1z M26,19h1v1h-1z M27,19h1v1h-1z M29,19h1v1h-1z M30,19h1v1h-1z M31,19h1v1h-1z M34,19h1v1h-1z M35,19h1v1h-1z M37,19h1v1h-1z M39,19h1v1h-1z M43,19h1v1h-1z M45,19h1v1h-1z M46,19h1v1h-1z M48,19h1v1h-1z M50,19h1v1h-1z M52,19h1v1h-1z M53,19h1v1h-1z M55,19h1v1h-1z M56,19h1v1h-1z M61,19h1v1h-1z M63,19h1v1h-1z M64,19h1v1h-1z M66,19h1v1h-1z M69,19h1v1h-1z M71,19h1v1h-1z M72,19h1v1h-1z M74,19h1v1h-1z M77,19h1v1h-1z M78,19h1v1h-1z M79,19h1v1h-1z M80,19h1v1h-1z M83,19h1v1h-1z M87,19h1v1h-1z M6,20h1v1h-1z M7,20h1v1h-1z M8,20h1v1h-1z M9,20h1v1h-1z M10,20h1v1h-1z M11,20h1v1h-1z M13,20h1v1h-1z M15,20h1v1h-1z M16,20h1v1h-1z M17,20h1v1h-1z M18,20h1v1h-1z M19,20h1v1h-1z M21,20h1v1h-1z M22,20h1v1h-1z M23,20h1v1h-1z M24,20h1v1h-1z M25,20h1v1h-1z M28,20h1v1h-1z M29,20h1v1h-1z M30,20h1v1h-1z M31,20h1v1h-1z M34,20h1v1h-1z M38,20h1v1h-1z M39,20h1v1h-1z M40,20h1v1h-1z M46,20h1v1h-1z M47,20h1v1h-1z M51,20h1v1h-1z M52,20h1v1h-1z M53,20h1v1h-1z M56,20h1v1h-1z M59,20h1v1h-1z M62,20h1v1h-1z M64,20h1v1h-1z M66,20h1v1h-1z M67,20h1v1h-1z M68,20h1v1h-1z M69,20h1v1h-1z M70,20h1v1h-1z M72,20h1v1h-1z M78,20h1v1h-1z M81,20h1v1h-1z M83,20h1v1h-1z M86,20h1v1h-1z M87,20h1v1h-1z M5,21h1v1h-1z M6,21h1v1h-1z M8,21h1v1h-1z M14,21h1v1h-1z M15,21h1v1h-1z M16,21h1v1h-1z M17,21h1v1h-1z M25,21h1v1h-1z M26,21h1v1h-1z M28,21h1v1h-1z M30,21h1v1h-1z M31,21h1v1h-1z M34,21h1v1h-1z M36,21h1v1h-1z M40,21h1v1h-1z M41,21h1v1h-1z M43,21h1v1h-1z M44,21h1v1h-1z M46,21h1v1h-1z M48,21h1v1h-1z M49,21h1v1h-1z M51,21h1v1h-1z M55,21h1v1h-1z M56,21h1v1h-1z M61,21h1v1h-1z M66,21h1v1h-1z M68,21h1v1h-1z M72,21h1v1h-1z M73,21h1v1h-1z M79,21h1v1h-1z M81,21h1v1h-1z M83,21h1v1h-1z M84,21h1v1h-1z M85,21h1v1h-1z M86,21h1v1h-1z M88,21h1v1h-1z M5,22h1v1h-1z M7,22h1v1h-1z M8,22h1v1h-1z M9,22h1v1h-1z M10,22h1v1h-1z M11,22h1v1h-1z M12,22h1v1h-1z M14,22h1v1h-1z M15,22h1v1h-1z M16,22h1v1h-1z M18,22h1v1h-1z M20,22h1v1h-1z M22,22h1v1h-1z M25,22h1v1h-1z M26,22h1v1h-1z M30,22h1v1h-1z M32,22h1v1h-1z M33,22h1v1h-1z M34,22h1v1h-1z M36,22h1v1h-1z M40,22h1v1h-1z M42,22h1v1h-1z M44,22h1v1h-1z M45,22h1v1h-1z M47,22h1v1h-1z M50,22h1v1h-1z M51,22h1v1h-1z M54,22h1v1h-1z M58,22h1v1h-1z M60,22h1v1h-1z M61,22h1v1h-1z M62,22h1v1h-1z M63,22h1v1h-1z M64,22h1v1h-1z M65,22h1v1h-1z M69,22h1v1h-1z M72,22h1v1h-1z M76,22h1v1h-1z M77,22h1v1h-1z M79,22h1v1h-1z M81,22h1v1h-1z M82,22h1v1h-1z M83,22h1v1h-1z M84,22h1v1h-1z M85,22h1v1h-1z M86,22h1v1h-1z M87,22h1v1h-1z M88,22h1v1h-1z M4,23h1v1h-1z M5,23h1v1h-1z M7,23h1v1h-1z M11,23h1v1h-1z M13,23h1v1h-1z M14,23h1v1h-1z M15,23h1v1h-1z M16,23h1v1h-1z M23,23h1v1h-1z M24,23h1v1h-1z M26,23h1v1h-1z M27,23h1v1h-1z M29,23h1v1h-1z M30,23h1v1h-1z M32,23h1v1h-1z M35,23h1v1h-1z M36,23h1v1h-1z M41,23h1v1h-1z M44,23h1v1h-1z M45,23h1v1h-1z M46,23h1v1h-1z M47,23h1v1h-1z M48,23h1v1h-1z M49,23h1v1h-1z M52,23h1v1h-1z M54,23h1v1h-1z M57,23h1v1h-1z M58,23h1v1h-1z M59,23h1v1h-1z M61,23h1v1h-1z M62,23h1v1h-1z M63,23h1v1h-1z M64,23h1v1h-1z M65,23h1v1h-1z M67,23h1v1h-1z M68,23h1v1h-1z M69,23h1v1h-1z M70,23h1v1h-1z M71,23h1v1h-1z M73,23h1v1h-1z M75,23h1v1h-1z M77,23h1v1h-1z M78,23h1v1h-1z M80,23h1v1h-1z M83,23h1v1h-1z M85,23h1v1h-1z M87,23h1v1h-1z M88,23h1v1h-1z M5,24h1v1h-1z M6,24h1v1h-1z M7,24h1v1h-1z M9,24h1v1h-1z M10,24h1v1h-1z M11,24h1v1h-1z M12,24h1v1h-1z M15,24h1v1h-1z M16,24h1v1h-1z M17,24h1v1h-1z M26,24h1v1h-1z M27,24h1v1h-1z M28,24h1v1h-1z M32,24h1v1h-1z M33,24h1v1h-1z M34,24h1v1h-1z M35,24h1v1h-1z M36,24h1v1h-1z M37,24h1v1h-1z M39,24h1v1h-1z M40,24h1v1h-1z M41,24h1v1h-1z M45,24h1v1h-1z M50,24h1v1h-1z M51,24h1v1h-1z M52,24h1v1h-1z M53,24h1v1h-1z M54,24h1v1h-1z M55,24h1v1h-1z M59,24h1v1h-1z M60,24h1v1h-1z M67,24h1v1h-1z M68,24h1v1h-1z M69,24h1v1h-1z M72,24h1v1h-1z M77,24h1v1h-1z M78,24h1v1h-1z M79,24h1v1h-1z M80,24h1v1h-1z M81,24h1v1h-1z M84,24h1v1h-1z M86,24h1v1h-1z M87,24h1v1h-1z M5,25h1v1h-1z M7,25h1v1h-1z M8,25h1v1h-1z M12,25h1v1h-1z M14,25h1v1h-1z M15,25h1v1h-1z M16,25h1v1h-1z M17,25h1v1h-1z M19,25h1v1h-1z M21,25h1v1h-1z M22,25h1v1h-1z M24,25h1v1h-1z M27,25h1v1h-1z M29,25h1v1h-1z M30,25h1v1h-1z M33,25h1v1h-1z M35,25h1v1h-1z M39,25h1v1h-1z M40,25h1v1h-1z M43,25h1v1h-1z M44,25h1v1h-1z M45,25h1v1h-1z M46,25h1v1h-1z M51,25h1v1h-1z M52,25h1v1h-1z M53,25h1v1h-1z M60,25h1v1h-1z M61,25h1v1h-1z M62,25h1v1h-1z M64,25h1v1h-1z M66,25h1v1h-1z M67,25h1v1h-1z M68,25h1v1h-1z M73,25h1v1h-1z M75,25h1v1h-1z M79,25h1v1h-1z M80,25h1v1h-1z M81,25h1v1h-1z M83,25h1v1h-1z M84,25h1v1h-1z M4,26h1v1h-1z M8,26h1v1h-1z M10,26h1v1h-1z M12,26h1v1h-1z M14,26h1v1h-1z M16,26h1v1h-1z M21,26h1v1h-1z M24,26h1v1h-1z M29,26h1v1h-1z M32,26h1v1h-1z M33,26h1v1h-1z M34,26h1v1h-1z M36,26h1v1h-1z M38,26h1v1h-1z M42,26h1v1h-1z M44,26h1v1h-1z M45,26h1v1h-1z M47,26h1v1h-1z M51,26h1v1h-1z M52,26h1v1h-1z M54,26h1v1h-1z M57,26h1v1h-1z M58,26h1v1h-1z M59,26h1v1h-1z M61,26h1v1h-1z M62,26h1v1h-1z M65,26h1v1h-1z M67,26h1v1h-1z M72,26h1v1h-1z M74,26h1v1h-1z M77,26h1v1h-1z M78,26h1v1h-1z M79,26h1v1h-1z M81,26h1v1h-1z M82,26h1v1h-1z M83,26h1v1h-1z M84,26h1v1h-1z M85,26h1v1h-1z M87,26h1v1h-1z M88,26h1v1h-1z M7,27h1v1h-1z M8,27h1v1h-1z M12,27h1v1h-1z M13,27h1v1h-1z M14,27h1v1h-1z M15,27h1v1h-1z M20,27h1v1h-1z M21,27h1v1h-1z M25,27h1v1h-1z M26,27h1v1h-1z M27,27h1v1h-1z M30,27h1v1h-1z M32,27h1v1h-1z M35,27h1v1h-1z M39,27h1v1h-1z M41,27h1v1h-1z M42,27h1v1h-1z M43,27h1v1h-1z M44,27h1v1h-1z M46,27h1v1h-1z M49,27h1v1h-1z M50,27h1v1h-1z M55,27h1v1h-1z M59,27h1v1h-1z M65,27h1v1h-1z M71,27h1v1h-1z M75,27h1v1h-1z M77,27h1v1h-1z M80,27h1v1h-1z M81,27h1v1h-1z M82,27h1v1h-1z M85,27h1v1h-1z M87,27h1v1h-1z M88,27h1v1h-1z M4,28h1v1h-1z M7,28h1v1h-1z M8,28h1v1h-1z M10,28h1v1h-1z M11,28h1v1h-1z M18,28h1v1h-1z M20,28h1v1h-1z M25,28h1v1h-1z M26,28h1v1h-1z M27,28h1v1h-1z M28,28h1v1h-1z M29,28h1v1h-1z M31,28h1v1h-1z M32,28h1v1h-1z M33,28h1v1h-1z M34,28h1v1h-1z M36,28h1v1h-1z M38,28h1v1h-1z M40,28h1v1h-1z M43,28h1v1h-1z M45,28h1v1h-1z M47,28h1v1h-1z M49,28h1v1h-1z M50,28h1v1h-1z M51,28h1v1h-1z M52,28h1v1h-1z M56,28h1v1h-1z M59,28h1v1h-1z M60,28h1v1h-1z M61,28h1v1h-1z M65,28h1v1h-1z M67,28h1v1h-1z M73,28h1v1h-1z M77,28h1v1h-1z M78,28h1v1h-1z M79,28h1v1h-1z M80,28h1v1h-1z M81,28h1v1h-1z M84,28h1v1h-1z M85,28h1v1h-1z M86,28h1v1h-1z M88,28h1v1h-1z M5,29h1v1h-1z M14,29h1v1h-1z M16,29h1v1h-1z M17,29h1v1h-1z M18,29h1v1h-1z M19,29h1v1h-1z M21,29h1v1h-1z M23,29h1v1h-1z M25,29h1v1h-1z M27,29h1v1h-1z M28,29h1v1h-1z M29,29h1v1h-1z M30,29h1v1h-1z M32,29h1v1h-1z M35,29h1v1h-1z M37,29h1v1h-1z M39,29h1v1h-1z M45,29h1v1h-1z M46,29h1v1h-1z M48,29h1v1h-1z M49,29h1v1h-1z M53,29h1v1h-1z M55,29h1v1h-1z M57,29h1v1h-1z M61,29h1v1h-1z M62,29h1v1h-1z M63,29h1v1h-1z M67,29h1v1h-1z M68,29h1v1h-1z M71,29h1v1h-1z M72,29h1v1h-1z M73,29h1v1h-1z M75,29h1v1h-1z M76,29h1v1h-1z M79,29h1v1h-1z M85,29h1v1h-1z M86,29h1v1h-1z M4,30h1v1h-1z M5,30h1v1h-1z M6,30h1v1h-1z M7,30h1v1h-1z M10,30h1v1h-1z M11,30h1v1h-1z M13,30h1v1h-1z M14,30h1v1h-1z M18,30h1v1h-1z M22,30h1v1h-1z M23,30h1v1h-1z M25,30h1v1h-1z M27,30h1v1h-1z M28,30h1v1h-1z M29,30h1v1h-1z M32,30h1v1h-1z M33,30h1v1h-1z M35,30h1v1h-1z M38,30h1v1h-1z M41,30h1v1h-1z M42,30h1v1h-1z M43,30h1v1h-1z M46,30h1v1h-1z M47,30h1v1h-1z M50,30h1v1h-1z M54,30h1v1h-1z M58,30h1v1h-1z M63,30h1v1h-1z M65,30h1v1h-1z M66,30h1v1h-1z M67,30h1v1h-1z M74,30h1v1h-1z M78,30h1v1h-1z M80,30h1v1h-1z M81,30h1v1h-1z M82,30h1v1h-1z M83,30h1v1h-1z M84,30h1v1h-1z M87,30h1v1h-1z M88,30h1v1h-1z M4,31h1v1h-1z M5,31h1v1h-1z M6,31h1v1h-1z M13,31h1v1h-1z M14,31h1v1h-1z M19,31h1v1h-1z M26,31h1v1h-1z M28,31h1v1h-1z M29,31h1v1h-1z M30,31h1v1h-1z M31,31h1v1h-1z M33,31h1v1h-1z M35,31h1v1h-1z M36,31h1v1h-1z M39,31h1v1h-1z M40,31h1v1h-1z M43,31h1v1h-1z M47,31h1v1h-1z M48,31h1v1h-1z M51,31h1v1h-1z M52,31h1v1h-1z M55,31h1v1h-1z M56,31h1v1h-1z M59,31h1v1h-1z M60,31h1v1h-1z M66,31h1v1h-1z M68,31h1v1h-1z M70,31h1v1h-1z M71,31h1v1h-1z M73,31h1v1h-1z M75,31h1v1h-1z M76,31h1v1h-1z M77,31h1v1h-1z M81,31h1v1h-1z M85,31h1v1h-1z M4,32h1v1h-1z M6,32h1v1h-1z M7,32h1v1h-1z M8,32h1v1h-1z M9,32h1v1h-1z M10,32h1v1h-1z M11,32h1v1h-1z M12,32h1v1h-1z M14,32h1v1h-1z M15,32h1v1h-1z M17,32h1v1h-1z M24,32h1v1h-1z M26,32h1v1h-1z M29,32h1v1h-1z M30,32h1v1h-1z M32,32h1v1h-1z M33,32h1v1h-1z M34,32h1v1h-1z M35,32h1v1h-1z M36,32h1v1h-1z M37,32h1v1h-1z M39,32h1v1h-1z M40,32h1v1h-1z M45,32h1v1h-1z M46,32h1v1h-1z M47,32h1v1h-1z M51,32h1v1h-1z M52,32h1v1h-1z M54,32h1v1h-1z M56,32h1v1h-1z M57,32h1v1h-1z M58,32h1v1h-1z M59,32h1v1h-1z M60,32h1v1h-1z M66,32h1v1h-1z M67,32h1v1h-1z M76,32h1v1h-1z M80,32h1v1h-1z M81,32h1v1h-1z M82,32h1v1h-1z M83,32h1v1h-1z M84,32h1v1h-1z M86,32h1v1h-1z M87,32h1v1h-1z M88,32h1v1h-1z M4,33h1v1h-1z M5,33h1v1h-1z M6,33h1v1h-1z M7,33h1v1h-1z M8,33h1v1h-1z M12,33h1v1h-1z M14,33h1v1h-1z M15,33h1v1h-1z M16,33h1v1h-1z M19,33h1v1h-1z M21,33h1v1h-1z M22,33h1v1h-1z M25,33h1v1h-1z M31,33h1v1h-1z M32,33h1v1h-1z M36,33h1v1h-1z M37,33h1v1h-1z M39,33h1v1h-1z M41,33h1v1h-1z M45,33h1v1h-1z M46,33h1v1h-1z M47,33h1v1h-1z M49,33h1v1h-1z M51,33h1v1h-1z M52,33h1v1h-1z M55,33h1v1h-1z M56,33h1v1h-1z M60,33h1v1h-1z M61,33h1v1h-1z M66,33h1v1h-1z M70,33h1v1h-1z M71,33h1v1h-1z M72,33h1v1h-1z M73,33h1v1h-1z M76,33h1v1h-1z M80,33h1v1h-1z M84,33h1v1h-1z M85,33h1v1h-1z M88,33h1v1h-1z M4,34h1v1h-1z M5,34h1v1h-1z M8,34h1v1h-1z M10,34h1v1h-1z M12,34h1v1h-1z M13,34h1v1h-1z M15,34h1v1h-1z M17,34h1v1h-1z M18,34h1v1h-1z M23,34h1v1h-1z M26,34h1v1h-1z M27,34h1v1h-1z M29,34h1v1h-1z M30,34h1v1h-1z M31,34h1v1h-1z M32,34h1v1h-1z M34,34h1v1h-1z M36,34h1v1h-1z M38,34h1v1h-1z M40,34h1v1h-1z M41,34h1v1h-1z M48,34h1v1h-1z M50,34h1v1h-1z M51,34h1v1h-1z M53,34h1v1h-1z M54,34h1v1h-1z M56,34h1v1h-1z M58,34h1v1h-1z M60,34h1v1h-1z M63,34h1v1h-1z M65,34h1v1h-1z M66,34h1v1h-1z M72,34h1v1h-1z M73,34h1v1h-1z M74,34h1v1h-1z M75,34h1v1h-1z M76,34h1v1h-1z M78,34h1v1h-1z M79,34h1v1h-1z M80,34h1v1h-1z M82,34h1v1h-1z M84,34h1v1h-1z M85,34h1v1h-1z M87,34h1v1h-1z M88,34h1v1h-1z M5,35h1v1h-1z M8,35h1v1h-1z M12,35h1v1h-1z M13,35h1v1h-1z M17,35h1v1h-1z M20,35h1v1h-1z M21,35h1v1h-1z M22,35h1v1h-1z M23,35h1v1h-1z M24,35h1v1h-1z M25,35h1v1h-1z M27,35h1v1h-1z M28,35h1v1h-1z M29,35h1v1h-1z M32,35h1v1h-1z M36,35h1v1h-1z M37,35h1v1h-1z M39,35h1v1h-1z M41,35h1v1h-1z M44,35h1v1h-1z M45,35h1v1h-1z M46,35h1v1h-1z M48,35h1v1h-1z M49,35h1v1h-1z M50,35h1v1h-1z M54,35h1v1h-1z M56,35h1v1h-1z M60,35h1v1h-1z M62,35h1v1h-1z M63,35h1v1h-1z M66,35h1v1h-1z M70,35h1v1h-1z M72,35h1v1h-1z M73,35h1v1h-1z M74,35h1v1h-1z M75,35h1v1h-1z M79,35h1v1h-1z M80,35h1v1h-1z M84,35h1v1h-1z M88,35h1v1h-1z M5,36h1v1h-1z M8,36h1v1h-1z M9,36h1v1h-1z M10,36h1v1h-1z M11,36h1v1h-1z M12,36h1v1h-1z M15,36h1v1h-1z M18,36h1v1h-1z M19,36h1v1h-1z M20,36h1v1h-1z M22,36h1v1h-1z M23,36h1v1h-1z M24,36h1v1h-1z M27,36h1v1h-1z M29,36h1v1h-1z M30,36h1v1h-1z M32,36h1v1h-1z M33,36h1v1h-1z M34,36h1v1h-1z M35,36h1v1h-1z M36,36h1v1h-1z M37,36h1v1h-1z M39,36h1v1h-1z M40,36h1v1h-1z M42,36h1v1h-1z M43,36h1v1h-1z M45,36h1v1h-1z M47,36h1v1h-1z M51,36h1v1h-1z M52,36h1v1h-1z M56,36h1v1h-1z M57,36h1v1h-1z M58,36h1v1h-1z M59,36h1v1h-1z M60,36h1v1h-1z M62,36h1v1h-1z M67,36h1v1h-1z M68,36h1v1h-1z M74,36h1v1h-1z M76,36h1v1h-1z M77,36h1v1h-1z M80,36h1v1h-1z M81,36h1v1h-1z M82,36h1v1h-1z M83,36h1v1h-1z M84,36h1v1h-1z M86,36h1v1h-1z M9,37h1v1h-1z M22,37h1v1h-1z M24,37h1v1h-1z M26,37h1v1h-1z M27,37h1v1h-1z M30,37h1v1h-1z M33,37h1v1h-1z M37,37h1v1h-1z M43,37h1v1h-1z M44,37h1v1h-1z M46,37h1v1h-1z M47,37h1v1h-1z M48,37h1v1h-1z M49,37h1v1h-1z M53,37h1v1h-1z M55,37h1v1h-1z M59,37h1v1h-1z M61,37h1v1h-1z M64,37h1v1h-1z M70,37h1v1h-1z M71,37h1v1h-1z M73,37h1v1h-1z M75,37h1v1h-1z M76,37h1v1h-1z M78,37h1v1h-1z M79,37h1v1h-1z M81,37h1v1h-1z M88,37h1v1h-1z M4,38h1v1h-1z M6,38h1v1h-1z M8,38h1v1h-1z M10,38h1v1h-1z M11,38h1v1h-1z M12,38h1v1h-1z M13,38h1v1h-1z M14,38h1v1h-1z M16,38h1v1h-1z M17,38h1v1h-1z M21,38h1v1h-1z M23,38h1v1h-1z M24,38h1v1h-1z M26,38h1v1h-1z M27,38h1v1h-1z M29,38h1v1h-1z M32,38h1v1h-1z M33,38h1v1h-1z M34,38h1v1h-1z M35,38h1v1h-1z M36,38h1v1h-1z M37,38h1v1h-1z M38,38h1v1h-1z M40,38h1v1h-1z M41,38h1v1h-1z M42,38h1v1h-1z M43,38h1v1h-1z M45,38h1v1h-1z M48,38h1v1h-1z M50,38h1v1h-1z M51,38h1v1h-1z M52,38h1v1h-1z M54,38h1v1h-1z M57,38h1v1h-1z M58,38h1v1h-1z M60,38h1v1h-1z M61,38h1v1h-1z M62,38h1v1h-1z M63,38h1v1h-1z M64,38h1v1h-1z M65,38h1v1h-1z M69,38h1v1h-1z M70,38h1v1h-1z M76,38h1v1h-1z M77,38h1v1h-1z M78,38h1v1h-1z M79,38h1v1h-1z M80,38h1v1h-1z M81,38h1v1h-1z M82,38h1v1h-1z M83,38h1v1h-1z M87,38h1v1h-1z M88,38h1v1h-1z M4,39h1v1h-1z M5,39h1v1h-1z M7,39h1v1h-1z M11,39h1v1h-1z M16,39h1v1h-1z M18,39h1v1h-1z M19,39h1v1h-1z M20,39h1v1h-1z M21,39h1v1h-1z M22,39h1v1h-1z M23,39h1v1h-1z M24,39h1v1h-1z M26,39h1v1h-1z M28,39h1v1h-1z M31,39h1v1h-1z M33,39h1v1h-1z M34,39h1v1h-1z M36,39h1v1h-1z M39,39h1v1h-1z M40,39h1v1h-1z M42,39h1v1h-1z M44,39h1v1h-1z M46,39h1v1h-1z M47,39h1v1h-1z M48,39h1v1h-1z M50,39h1v1h-1z M51,39h1v1h-1z M54,39h1v1h-1z M55,39h1v1h-1z M58,39h1v1h-1z M61,39h1v1h-1z M62,39h1v1h-1z M65,39h1v1h-1z M68,39h1v1h-1z M71,39h1v1h-1z M72,39h1v1h-1z M75,39h1v1h-1z M76,39h1v1h-1z M81,39h1v1h-1z M82,39h1v1h-1z M83,39h1v1h-1z M85,39h1v1h-1z M88,39h1v1h-1z M4,40h1v1h-1z M6,40h1v1h-1z M10,40h1v1h-1z M11,40h1v1h-1z M15,40h1v1h-1z M16,40h1v1h-1z M18,40h1v1h-1z M19,40h1v1h-1z M20,40h1v1h-1z M21,40h1v1h-1z M24,40h1v1h-1z M28,40h1v1h-1z M30,40h1v1h-1z M33,40h1v1h-1z M34,40h1v1h-1z M37,40h1v1h-1z M39,40h1v1h-1z M40,40h1v1h-1z M45,40h1v1h-1z M46,40h1v1h-1z M47,40h1v1h-1z M49,40h1v1h-1z M52,40h1v1h-1z M53,40h1v1h-1z M54,40h1v1h-1z M56,40h1v1h-1z M60,40h1v1h-1z M61,40h1v1h-1z M62,40h1v1h-1z M64,40h1v1h-1z M67,40h1v1h-1z M69,40h1v1h-1z M76,40h1v1h-1z M77,40h1v1h-1z M78,40h1v1h-1z M81,40h1v1h-1z M83,40h1v1h-1z M85,40h1v1h-1z M86,40h1v1h-1z M88,40h1v1h-1z M4,41h1v1h-1z M5,41h1v1h-1z M7,41h1v1h-1z M9,41h1v1h-1z M11,41h1v1h-1z M13,41h1v1h-1z M15,41h1v1h-1z M17,41h1v1h-1z M19,41h1v1h-1z M21,41h1v1h-1z M23,41h1v1h-1z M24,41h1v1h-1z M25,41h1v1h-1z M26,41h1v1h-1z M28,41h1v1h-1z M30,41h1v1h-1z M34,41h1v1h-1z M37,41h1v1h-1z M40,41h1v1h-1z M41,41h1v1h-1z M43,41h1v1h-1z M44,41h1v1h-1z M46,41h1v1h-1z M47,41h1v1h-1z M49,41h1v1h-1z M52,41h1v1h-1z M55,41h1v1h-1z M60,41h1v1h-1z M61,41h1v1h-1z M63,41h1v1h-1z M67,41h1v1h-1z M68,41h1v1h-1z M70,41h1v1h-1z M73,41h1v1h-1z M74,41h1v1h-1z M79,41h1v1h-1z M81,41h1v1h-1z M82,41h1v1h-1z M83,41h1v1h-1z M84,41h1v1h-1z M87,41h1v1h-1z M4,42h1v1h-1z M7,42h1v1h-1z M8,42h1v1h-1z M9,42h1v1h-1z M10,42h1v1h-1z M11,42h1v1h-1z M12,42h1v1h-1z M13,42h1v1h-1z M20,42h1v1h-1z M21,42h1v1h-1z M22,42h1v1h-1z M25,42h1v1h-1z M26,42h1v1h-1z M27,42h1v1h-1z M28,42h1v1h-1z M30,42h1v1h-1z M31,42h1v1h-1z M33,42h1v1h-1z M36,42h1v1h-1z M38,42h1v1h-1z M42,42h1v1h-1z M43,42h1v1h-1z M45,42h1v1h-1z M47,42h1v1h-1z M48,42h1v1h-1z M49,42h1v1h-1z M50,42h1v1h-1z M51,42h1v1h-1z M53,42h1v1h-1z M54,42h1v1h-1z M55,42h1v1h-1z M56,42h1v1h-1z M57,42h1v1h-1z M58,42h1v1h-1z M60,42h1v1h-1z M61,42h1v1h-1z M62,42h1v1h-1z M63,42h1v1h-1z M65,42h1v1h-1z M68,42h1v1h-1z M69,42h1v1h-1z M70,42h1v1h-1z M71,42h1v1h-1z M76,42h1v1h-1z M77,42h1v1h-1z M79,42h1v1h-1z M80,42h1v1h-1z M83,42h1v1h-1z M86,42h1v1h-1z M87,42h1v1h-1z M5,43h1v1h-1z M11,43h1v1h-1z M13,43h1v1h-1z M14,43h1v1h-1z M15,43h1v1h-1z M16,43h1v1h-1z M18,43h1v1h-1z M20,43h1v1h-1z M23,43h1v1h-1z M27,43h1v1h-1z M29,43h1v1h-1z M30,43h1v1h-1z M32,43h1v1h-1z M34,43h1v1h-1z M35,43h1v1h-1z M37,43h1v1h-1z M40,43h1v1h-1z M44,43h1v1h-1z M45,43h1v1h-1z M47,43h1v1h-1z M48,43h1v1h-1z M51,43h1v1h-1z M55,43h1v1h-1z M56,43h1v1h-1z M57,43h1v1h-1z M58,43h1v1h-1z M59,43h1v1h-1z M60,43h1v1h-1z M61,43h1v1h-1z M65,43h1v1h-1z M69,43h1v1h-1z M70,43h1v1h-1z M71,43h1v1h-1z M72,43h1v1h-1z M73,43h1v1h-1z M74,43h1v1h-1z M75,43h1v1h-1z M76,43h1v1h-1z M78,43h1v1h-1z M82,43h1v1h-1z M83,43h1v1h-1z M84,43h1v1h-1z M87,43h1v1h-1z M88,43h1v1h-1z M4,44h1v1h-1z M5,44h1v1h-1z M9,44h1v1h-1z M10,44h1v1h-1z M11,44h1v1h-1z M13,44h1v1h-1z M15,44h1v1h-1z M17,44h1v1h-1z M20,44h1v1h-1z M24,44h1v1h-1z M28,44h1v1h-1z M29,44h1v1h-1z M30,44h1v1h-1z M31,44h1v1h-1z M34,44h1v1h-1z M35,44h1v1h-1z M36,44h1v1h-1z M39,44h1v1h-1z M42,44h1v1h-1z M45,44h1v1h-1z M46,44h1v1h-1z M52,44h1v1h-1z M53,44h1v1h-1z M55,44h1v1h-1z M56,44h1v1h-1z M57,44h1v1h-1z M59,44h1v1h-1z M61,44h1v1h-1z M66,44h1v1h-1z M67,44h1v1h-1z M69,44h1v1h-1z M73,44h1v1h-1z M74,44h1v1h-1z M80,44h1v1h-1z M83,44h1v1h-1z M85,44h1v1h-1z M86,44h1v1h-1z M88,44h1v1h-1z M6,45h1v1h-1z M7,45h1v1h-1z M8,45h1v1h-1z M9,45h1v1h-1z M11,45h1v1h-1z M14,45h1v1h-1z M15,45h1v1h-1z M16,45h1v1h-1z M17,45h1v1h-1z M19,45h1v1h-1z M20,45h1v1h-1z M21,45h1v1h-1z M23,45h1v1h-1z M25,45h1v1h-1z M31,45h1v1h-1z M32,45h1v1h-1z M33,45h1v1h-1z M34,45h1v1h-1z M44,45h1v1h-1z M45,45h1v1h-1z M46,45h1v1h-1z M47,45h1v1h-1z M48,45h1v1h-1z M49,45h1v1h-1z M51,45h1v1h-1z M52,45h1v1h-1z M53,45h1v1h-1z M55,45h1v1h-1z M56,45h1v1h-1z M59,45h1v1h-1z M60,45h1v1h-1z M61,45h1v1h-1z M64,45h1v1h-1z M66,45h1v1h-1z M68,45h1v1h-1z M70,45h1v1h-1z M71,45h1v1h-1z M72,45h1v1h-1z M73,45h1v1h-1z M83,45h1v1h-1z M5,46h1v1h-1z M7,46h1v1h-1z M10,46h1v1h-1z M11,46h1v1h-1z M12,46h1v1h-1z M16,46h1v1h-1z M17,46h1v1h-1z M18,46h1v1h-1z M19,46h1v1h-1z M21,46h1v1h-1z M22,46h1v1h-1z M23,46h1v1h-1z M24,46h1v1h-1z M25,46h1v1h-1z M26,46h1v1h-1z M27,46h1v1h-1z M28,46h1v1h-1z M29,46h1v1h-1z M30,46h1v1h-1z M31,46h1v1h-1z M32,46h1v1h-1z M33,46h1v1h-1z M34,46h1v1h-1z M38,46h1v1h-1z M39,46h1v1h-1z M42,46h1v1h-1z M44,46h1v1h-1z M45,46h1v1h-1z M50,46h1v1h-1z M52,46h1v1h-1z M53,46h1v1h-1z M54,46h1v1h-1z M56,46h1v1h-1z M61,46h1v1h-1z M62,46h1v1h-1z M63,46h1v1h-1z M65,46h1v1h-1z M66,46h1v1h-1z M67,46h1v1h-1z M69,46h1v1h-1z M70,46h1v1h-1z M71,46h1v1h-1z M72,46h1v1h-1z M74,46h1v1h-1z M75,46h1v1h-1z M76,46h1v1h-1z M77,46h1v1h-1z M78,46h1v1h-1z M80,46h1v1h-1z M81,46h1v1h-1z M83,46h1v1h-1z M84,46h1v1h-1z M85,46h1v1h-1z M86,46h1v1h-1z M88,46h1v1h-1z M4,47h1v1h-1z M5,47h1v1h-1z M6,47h1v1h-1z M8,47h1v1h-1z M15,47h1v1h-1z M19,47h1v1h-1z M20,47h1v1h-1z M21,47h1v1h-1z M22,47h1v1h-1z M24,47h1v1h-1z M27,47h1v1h-1z M28,47h1v1h-1z M29,47h1v1h-1z M31,47h1v1h-1z M32,47h1v1h-1z M33,47h1v1h-1z M36,47h1v1h-1z M43,47h1v1h-1z M44,47h1v1h-1z M49,47h1v1h-1z M55,47h1v1h-1z M56,47h1v1h-1z M61,47h1v1h-1z M62,47h1v1h-1z M63,47h1v1h-1z M66,47h1v1h-1z M67,47h1v1h-1z M68,47h1v1h-1z M69,47h1v1h-1z M71,47h1v1h-1z M72,47h1v1h-1z M75,47h1v1h-1z M76,47h1v1h-1z M77,47h1v1h-1z M78,47h1v1h-1z M79,47h1v1h-1z M81,47h1v1h-1z M82,47h1v1h-1z M84,47h1v1h-1z M88,47h1v1h-1z M6,48h1v1h-1z M8,48h1v1h-1z M10,48h1v1h-1z M13,48h1v1h-1z M14,48h1v1h-1z M15,48h1v1h-1z M17,48h1v1h-1z M18,48h1v1h-1z M20,48h1v1h-1z M22,48h1v1h-1z M24,48h1v1h-1z M26,48h1v1h-1z M27,48h1v1h-1z M29,48h1v1h-1z M30,48h1v1h-1z M31,48h1v1h-1z M32,48h1v1h-1z M34,48h1v1h-1z M35,48h1v1h-1z M38,48h1v1h-1z M40,48h1v1h-1z M42,48h1v1h-1z M46,48h1v1h-1z M47,48h1v1h-1z M49,48h1v1h-1z M50,48h1v1h-1z M51,48h1v1h-1z M52,48h1v1h-1z M53,48h1v1h-1z M54,48h1v1h-1z M58,48h1v1h-1z M59,48h1v1h-1z M60,48h1v1h-1z M62,48h1v1h-1z M64,48h1v1h-1z M66,48h1v1h-1z M67,48h1v1h-1z M70,48h1v1h-1z M72,48h1v1h-1z M74,48h1v1h-1z M78,48h1v1h-1z M79,48h1v1h-1z M80,48h1v1h-1z M81,48h1v1h-1z M85,48h1v1h-1z M86,48h1v1h-1z M4,49h1v1h-1z M5,49h1v1h-1z M6,49h1v1h-1z M8,49h1v1h-1z M9,49h1v1h-1z M12,49h1v1h-1z M14,49h1v1h-1z M15,49h1v1h-1z M17,49h1v1h-1z M19,49h1v1h-1z M20,49h1v1h-1z M23,49h1v1h-1z M26,49h1v1h-1z M28,49h1v1h-1z M29,49h1v1h-1z M31,49h1v1h-1z M34,49h1v1h-1z M36,49h1v1h-1z M37,49h1v1h-1z M39,49h1v1h-1z M40,49h1v1h-1z M45,49h1v1h-1z M46,49h1v1h-1z M49,49h1v1h-1z M52,49h1v1h-1z M53,49h1v1h-1z M55,49h1v1h-1z M60,49h1v1h-1z M61,49h1v1h-1z M63,49h1v1h-1z M64,49h1v1h-1z M68,49h1v1h-1z M71,49h1v1h-1z M72,49h1v1h-1z M73,49h1v1h-1z M74,49h1v1h-1z M78,49h1v1h-1z M79,49h1v1h-1z M82,49h1v1h-1z M83,49h1v1h-1z M85,49h1v1h-1z M86,49h1v1h-1z M87,49h1v1h-1z M88,49h1v1h-1z M4,50h1v1h-1z M6,50h1v1h-1z M9,50h1v1h-1z M10,50h1v1h-1z M12,50h1v1h-1z M13,50h1v1h-1z M15,50h1v1h-1z M16,50h1v1h-1z M18,50h1v1h-1z M23,50h1v1h-1z M24,50h1v1h-1z M27,50h1v1h-1z M29,50h1v1h-1z M30,50h1v1h-1z M31,50h1v1h-1z M32,50h1v1h-1z M37,50h1v1h-1z M38,50h1v1h-1z M40,50h1v1h-1z M41,50h1v1h-1z M42,50h1v1h-1z M43,50h1v1h-1z M44,50h1v1h-1z M45,50h1v1h-1z M47,50h1v1h-1z M48,50h1v1h-1z M49,50h1v1h-1z M50,50h1v1h-1z M51,50h1v1h-1z M52,50h1v1h-1z M54,50h1v1h-1z M55,50h1v1h-1z M60,50h1v1h-1z M63,50h1v1h-1z M64,50h1v1h-1z M65,50h1v1h-1z M66,50h1v1h-1z M67,50h1v1h-1z M68,50h1v1h-1z M69,50h1v1h-1z M70,50h1v1h-1z M72,50h1v1h-1z M75,50h1v1h-1z M76,50h1v1h-1z M77,50h1v1h-1z M78,50h1v1h-1z M79,50h1v1h-1z M80,50h1v1h-1z M82,50h1v1h-1z M87,50h1v1h-1z M88,50h1v1h-1z M4,51h1v1h-1z M6,51h1v1h-1z M18,51h1v1h-1z M19,51h1v1h-1z M20,51h1v1h-1z M21,51h1v1h-1z M26,51h1v1h-1z M27,51h1v1h-1z M28,51h1v1h-1z M29,51h1v1h-1z M30,51h1v1h-1z M34,51h1v1h-1z M35,51h1v1h-1z M36,51h1v1h-1z M38,51h1v1h-1z M39,51h1v1h-1z M40,51h1v1h-1z M41,51h1v1h-1z M42,51h1v1h-1z M45,51h1v1h-1z M48,51h1v1h-1z M50,51h1v1h-1z M51,51h1v1h-1z M54,51h1v1h-1z M57,51h1v1h-1z M60,51h1v1h-1z M62,51h1v1h-1z M63,51h1v1h-1z M65,51h1v1h-1z M68,51h1v1h-1z M70,51h1v1h-1z M72,51h1v1h-1z M74,51h1v1h-1z M81,51h1v1h-1z M82,51h1v1h-1z M84,51h1v1h-1z M85,51h1v1h-1z M4,52h1v1h-1z M5,52h1v1h-1z M7,52h1v1h-1z M8,52h1v1h-1z M9,52h1v1h-1z M10,52h1v1h-1z M11,52h1v1h-1z M12,52h1v1h-1z M13,52h1v1h-1z M16,52h1v1h-1z M17,52h1v1h-1z M19,52h1v1h-1z M21,52h1v1h-1z M26,52h1v1h-1z M27,52h1v1h-1z M28,52h1v1h-1z M30,52h1v1h-1z M31,52h1v1h-1z M32,52h1v1h-1z M33,52h1v1h-1z M35,52h1v1h-1z M36,52h1v1h-1z M37,52h1v1h-1z M38,52h1v1h-1z M39,52h1v1h-1z M40,52h1v1h-1z M42,52h1v1h-1z M50,52h1v1h-1z M51,52h1v1h-1z M52,52h1v1h-1z M55,52h1v1h-1z M56,52h1v1h-1z M60,52h1v1h-1z M62,52h1v1h-1z M64,52h1v1h-1z M67,52h1v1h-1z M68,52h1v1h-1z M73,52h1v1h-1z M76,52h1v1h-1z M77,52h1v1h-1z M78,52h1v1h-1z M80,52h1v1h-1z M82,52h1v1h-1z M86,52h1v1h-1z M88,52h1v1h-1z M4,53h1v1h-1z M6,53h1v1h-1z M7,53h1v1h-1z M9,53h1v1h-1z M13,53h1v1h-1z M14,53h1v1h-1z M17,53h1v1h-1z M22,53h1v1h-1z M23,53h1v1h-1z M25,53h1v1h-1z M26,53h1v1h-1z M29,53h1v1h-1z M32,53h1v1h-1z M33,53h1v1h-1z M34,53h1v1h-1z M38,53h1v1h-1z M39,53h1v1h-1z M40,53h1v1h-1z M46,53h1v1h-1z M48,53h1v1h-1z M52,53h1v1h-1z M53,53h1v1h-1z M55,53h1v1h-1z M56,53h1v1h-1z M59,53h1v1h-1z M60,53h1v1h-1z M61,53h1v1h-1z M62,53h1v1h-1z M64,53h1v1h-1z M66,53h1v1h-1z M73,53h1v1h-1z M78,53h1v1h-1z M79,53h1v1h-1z M82,53h1v1h-1z M84,53h1v1h-1z M85,53h1v1h-1z M87,53h1v1h-1z M88,53h1v1h-1z M7,54h1v1h-1z M8,54h1v1h-1z M10,54h1v1h-1z M12,54h1v1h-1z M15,54h1v1h-1z M18,54h1v1h-1z M20,54h1v1h-1z M21,54h1v1h-1z M25,54h1v1h-1z M26,54h1v1h-1z M27,54h1v1h-1z M28,54h1v1h-1z M29,54h1v1h-1z M33,54h1v1h-1z M34,54h1v1h-1z M35,54h1v1h-1z M37,54h1v1h-1z M41,54h1v1h-1z M42,54h1v1h-1z M45,54h1v1h-1z M47,54h1v1h-1z M48,54h1v1h-1z M49,54h1v1h-1z M50,54h1v1h-1z M53,54h1v1h-1z M57,54h1v1h-1z M58,54h1v1h-1z M62,54h1v1h-1z M63,54h1v1h-1z M64,54h1v1h-1z M65,54h1v1h-1z M71,54h1v1h-1z M75,54h1v1h-1z M76,54h1v1h-1z M77,54h1v1h-1z M80,54h1v1h-1z M81,54h1v1h-1z M85,54h1v1h-1z M86,54h1v1h-1z M87,54h1v1h-1z M88,54h1v1h-1z M4,55h1v1h-1z M5,55h1v1h-1z M6,55h1v1h-1z M7,55h1v1h-1z M11,55h1v1h-1z M12,55h1v1h-1z M15,55h1v1h-1z M16,55h1v1h-1z M17,55h1v1h-1z M19,55h1v1h-1z M23,55h1v1h-1z M24,55h1v1h-1z M25,55h1v1h-1z M26,55h1v1h-1z M27,55h1v1h-1z M28,55h1v1h-1z M33,55h1v1h-1z M37,55h1v1h-1z M39,55h1v1h-1z M43,55h1v1h-1z M44,55h1v1h-1z M45,55h1v1h-1z M46,55h1v1h-1z M47,55h1v1h-1z M48,55h1v1h-1z M49,55h1v1h-1z M52,55h1v1h-1z M53,55h1v1h-1z M54,55h1v1h-1z M57,55h1v1h-1z M58,55h1v1h-1z M59,55h1v1h-1z M60,55h1v1h-1z M61,55h1v1h-1z M63,55h1v1h-1z M68,55h1v1h-1z M70,55h1v1h-1z M71,55h1v1h-1z M75,55h1v1h-1z M77,55h1v1h-1z M78,55h1v1h-1z M81,55h1v1h-1z M82,55h1v1h-1z M87,55h1v1h-1z M5,56h1v1h-1z M6,56h1v1h-1z M8,56h1v1h-1z M9,56h1v1h-1z M10,56h1v1h-1z M11,56h1v1h-1z M12,56h1v1h-1z M13,56h1v1h-1z M14,56h1v1h-1z M15,56h1v1h-1z M18,56h1v1h-1z M19,56h1v1h-1z M22,56h1v1h-1z M23,56h1v1h-1z M26,56h1v1h-1z M28,56h1v1h-1z M31,56h1v1h-1z M32,56h1v1h-1z M33,56h1v1h-1z M34,56h1v1h-1z M35,56h1v1h-1z M36,56h1v1h-1z M39,56h1v1h-1z M40,56h1v1h-1z M41,56h1v1h-1z M45,56h1v1h-1z M47,56h1v1h-1z M49,56h1v1h-1z M50,56h1v1h-1z M51,56h1v1h-1z M52,56h1v1h-1z M55,56h1v1h-1z M56,56h1v1h-1z M57,56h1v1h-1z M58,56h1v1h-1z M59,56h1v1h-1z M60,56h1v1h-1z M62,56h1v1h-1z M65,56h1v1h-1z M67,56h1v1h-1z M70,56h1v1h-1z M73,56h1v1h-1z M76,56h1v1h-1z M77,56h1v1h-1z M79,56h1v1h-1z M80,56h1v1h-1z M81,56h1v1h-1z M82,56h1v1h-1z M83,56h1v1h-1z M84,56h1v1h-1z M86,56h1v1h-1z M87,56h1v1h-1z M6,57h1v1h-1z M7,57h1v1h-1z M8,57h1v1h-1z M12,57h1v1h-1z M13,57h1v1h-1z M16,57h1v1h-1z M18,57h1v1h-1z M20,57h1v1h-1z M21,57h1v1h-1z M22,57h1v1h-1z M24,57h1v1h-1z M27,57h1v1h-1z M29,57h1v1h-1z M31,57h1v1h-1z M32,57h1v1h-1z M36,57h1v1h-1z M37,57h1v1h-1z M40,57h1v1h-1z M43,57h1v1h-1z M44,57h1v1h-1z M46,57h1v1h-1z M47,57h1v1h-1z M48,57h1v1h-1z M49,57h1v1h-1z M53,57h1v1h-1z M56,57h1v1h-1z M60,57h1v1h-1z M61,57h1v1h-1z M62,57h1v1h-1z M63,57h1v1h-1z M67,57h1v1h-1z M68,57h1v1h-1z M71,57h1v1h-1z M72,57h1v1h-1z M73,57h1v1h-1z M76,57h1v1h-1z M79,57h1v1h-1z M80,57h1v1h-1z M84,57h1v1h-1z M86,57h1v1h-1z M88,57h1v1h-1z M5,58h1v1h-1z M7,58h1v1h-1z M8,58h1v1h-1z M10,58h1v1h-1z M12,58h1v1h-1z M13,58h1v1h-1z M14,58h1v1h-1z M15,58h1v1h-1z M16,58h1v1h-1z M17,58h1v1h-1z M18,58h1v1h-1z M19,58h1v1h-1z M27,58h1v1h-1z M29,58h1v1h-1z M30,58h1v1h-1z M32,58h1v1h-1z M34,58h1v1h-1z M36,58h1v1h-1z M39,58h1v1h-1z M41,58h1v1h-1z M42,58h1v1h-1z M47,58h1v1h-1z M49,58h1v1h-1z M50,58h1v1h-1z M52,58h1v1h-1z M53,58h1v1h-1z M54,58h1v1h-1z M55,58h1v1h-1z M56,58h1v1h-1z M58,58h1v1h-1z M60,58h1v1h-1z M62,58h1v1h-1z M63,58h1v1h-1z M64,58h1v1h-1z M66,58h1v1h-1z M67,58h1v1h-1z M68,58h1v1h-1z M69,58h1v1h-1z M73,58h1v1h-1z M74,58h1v1h-1z M76,58h1v1h-1z M78,58h1v1h-1z M79,58h1v1h-1z M80,58h1v1h-1z M82,58h1v1h-1z M84,58h1v1h-1z M85,58h1v1h-1z M87,58h1v1h-1z M88,58h1v1h-1z M8,59h1v1h-1z M12,59h1v1h-1z M13,59h1v1h-1z M15,59h1v1h-1z M16,59h1v1h-1z M18,59h1v1h-1z M19,59h1v1h-1z M21,59h1v1h-1z M22,59h1v1h-1z M23,59h1v1h-1z M24,59h1v1h-1z M26,59h1v1h-1z M27,59h1v1h-1z M30,59h1v1h-1z M32,59h1v1h-1z M36,59h1v1h-1z M37,59h1v1h-1z M38,59h1v1h-1z M42,59h1v1h-1z M44,59h1v1h-1z M45,59h1v1h-1z M48,59h1v1h-1z M49,59h1v1h-1z M55,59h1v1h-1z M56,59h1v1h-1z M60,59h1v1h-1z M62,59h1v1h-1z M67,59h1v1h-1z M68,59h1v1h-1z M71,59h1v1h-1z M73,59h1v1h-1z M75,59h1v1h-1z M77,59h1v1h-1z M78,59h1v1h-1z M79,59h1v1h-1z M80,59h1v1h-1z M84,59h1v1h-1z M6,60h1v1h-1z M7,60h1v1h-1z M8,60h1v1h-1z M9,60h1v1h-1z M10,60h1v1h-1z M11,60h1v1h-1z M12,60h1v1h-1z M15,60h1v1h-1z M17,60h1v1h-1z M20,60h1v1h-1z M22,60h1v1h-1z M23,60h1v1h-1z M24,60h1v1h-1z M25,60h1v1h-1z M27,60h1v1h-1z M28,60h1v1h-1z M30,60h1v1h-1z M32,60h1v1h-1z M33,60h1v1h-1z M34,60h1v1h-1z M35,60h1v1h-1z M36,60h1v1h-1z M38,60h1v1h-1z M39,60h1v1h-1z M40,60h1v1h-1z M41,60h1v1h-1z M49,60h1v1h-1z M52,60h1v1h-1z M53,60h1v1h-1z M55,60h1v1h-1z M56,60h1v1h-1z M57,60h1v1h-1z M58,60h1v1h-1z M59,60h1v1h-1z M60,60h1v1h-1z M64,60h1v1h-1z M65,60h1v1h-1z M67,60h1v1h-1z M68,60h1v1h-1z M70,60h1v1h-1z M76,60h1v1h-1z M77,60h1v1h-1z M80,60h1v1h-1z M81,60h1v1h-1z M82,60h1v1h-1z M83,60h1v1h-1z M84,60h1v1h-1z M6,61h1v1h-1z M11,61h1v1h-1z M12,61h1v1h-1z M13,61h1v1h-1z M14,61h1v1h-1z M15,61h1v1h-1z M17,61h1v1h-1z M18,61h1v1h-1z M22,61h1v1h-1z M23,61h1v1h-1z M24,61h1v1h-1z M27,61h1v1h-1z M28,61h1v1h-1z M30,61h1v1h-1z M34,61h1v1h-1z M36,61h1v1h-1z M37,61h1v1h-1z M40,61h1v1h-1z M41,61h1v1h-1z M46,61h1v1h-1z M53,61h1v1h-1z M55,61h1v1h-1z M56,61h1v1h-1z M59,61h1v1h-1z M61,61h1v1h-1z M64,61h1v1h-1z M66,61h1v1h-1z M68,61h1v1h-1z M71,61h1v1h-1z M72,61h1v1h-1z M73,61h1v1h-1z M76,61h1v1h-1z M78,61h1v1h-1z M79,61h1v1h-1z M80,61h1v1h-1z M81,61h1v1h-1z M82,61h1v1h-1z M83,61h1v1h-1z M85,61h1v1h-1z M87,61h1v1h-1z M88,61h1v1h-1z M4,62h1v1h-1z M7,62h1v1h-1z M8,62h1v1h-1z M10,62h1v1h-1z M12,62h1v1h-1z M13,62h1v1h-1z M14,62h1v1h-1z M16,62h1v1h-1z M17,62h1v1h-1z M19,62h1v1h-1z M20,62h1v1h-1z M22,62h1v1h-1z M24,62h1v1h-1z M25,62h1v1h-1z M26,62h1v1h-1z M27,62h1v1h-1z M29,62h1v1h-1z M30,62h1v1h-1z M32,62h1v1h-1z M35,62h1v1h-1z M36,62h1v1h-1z M37,62h1v1h-1z M38,62h1v1h-1z M39,62h1v1h-1z M41,62h1v1h-1z M42,62h1v1h-1z M43,62h1v1h-1z M49,62h1v1h-1z M51,62h1v1h-1z M52,62h1v1h-1z M55,62h1v1h-1z M60,62h1v1h-1z M61,62h1v1h-1z M62,62h1v1h-1z M63,62h1v1h-1z M64,62h1v1h-1z M66,62h1v1h-1z M67,62h1v1h-1z M68,62h1v1h-1z M72,62h1v1h-1z M73,62h1v1h-1z M74,62h1v1h-1z M75,62h1v1h-1z M77,62h1v1h-1z M79,62h1v1h-1z M80,62h1v1h-1z M82,62h1v1h-1z M87,62h1v1h-1z M88,62h1v1h-1z M5,63h1v1h-1z M8,63h1v1h-1z M13,63h1v1h-1z M15,63h1v1h-1z M16,63h1v1h-1z M17,63h1v1h-1z M19,63h1v1h-1z M22,63h1v1h-1z M23,63h1v1h-1z M27,63h1v1h-1z M28,63h1v1h-1z M31,63h1v1h-1z M33,63h1v1h-1z M35,63h1v1h-1z M36,63h1v1h-1z M38,63h1v1h-1z M39,63h1v1h-1z M41,63h1v1h-1z M42,63h1v1h-1z M44,63h1v1h-1z M48,63h1v1h-1z M49,63h1v1h-1z M50,63h1v1h-1z M53,63h1v1h-1z M54,63h1v1h-1z M57,63h1v1h-1z M58,63h1v1h-1z M61,63h1v1h-1z M62,63h1v1h-1z M63,63h1v1h-1z M65,63h1v1h-1z M66,63h1v1h-1z M67,63h1v1h-1z M68,63h1v1h-1z M71,63h1v1h-1z M75,63h1v1h-1z M76,63h1v1h-1z M79,63h1v1h-1z M81,63h1v1h-1z M82,63h1v1h-1z M83,63h1v1h-1z M84,63h1v1h-1z M85,63h1v1h-1z M87,63h1v1h-1z M5,64h1v1h-1z M6,64h1v1h-1z M7,64h1v1h-1z M9,64h1v1h-1z M10,64h1v1h-1z M11,64h1v1h-1z M13,64h1v1h-1z M15,64h1v1h-1z M24,64h1v1h-1z M27,64h1v1h-1z M29,64h1v1h-1z M32,64h1v1h-1z M34,64h1v1h-1z M36,64h1v1h-1z M38,64h1v1h-1z M39,64h1v1h-1z M40,64h1v1h-1z M41,64h1v1h-1z M46,64h1v1h-1z M47,64h1v1h-1z M50,64h1v1h-1z M51,64h1v1h-1z M52,64h1v1h-1z M53,64h1v1h-1z M55,64h1v1h-1z M57,64h1v1h-1z M58,64h1v1h-1z M62,64h1v1h-1z M64,64h1v1h-1z M65,64h1v1h-1z M66,64h1v1h-1z M67,64h1v1h-1z M76,64h1v1h-1z M78,64h1v1h-1z M79,64h1v1h-1z M80,64h1v1h-1z M81,64h1v1h-1z M82,64h1v1h-1z M86,64h1v1h-1z M88,64h1v1h-1z M5,65h1v1h-1z M6,65h1v1h-1z M7,65h1v1h-1z M9,65h1v1h-1z M11,65h1v1h-1z M12,65h1v1h-1z M14,65h1v1h-1z M17,65h1v1h-1z M18,65h1v1h-1z M23,65h1v1h-1z M24,65h1v1h-1z M27,65h1v1h-1z M29,65h1v1h-1z M31,65h1v1h-1z M32,65h1v1h-1z M34,65h1v1h-1z M37,65h1v1h-1z M38,65h1v1h-1z M40,65h1v1h-1z M43,65h1v1h-1z M44,65h1v1h-1z M46,65h1v1h-1z M47,65h1v1h-1z M48,65h1v1h-1z M49,65h1v1h-1z M51,65h1v1h-1z M52,65h1v1h-1z M55,65h1v1h-1z M56,65h1v1h-1z M57,65h1v1h-1z M58,65h1v1h-1z M59,65h1v1h-1z M61,65h1v1h-1z M62,65h1v1h-1z M68,65h1v1h-1z M70,65h1v1h-1z M71,65h1v1h-1z M73,65h1v1h-1z M75,65h1v1h-1z M76,65h1v1h-1z M81,65h1v1h-1z M82,65h1v1h-1z M83,65h1v1h-1z M85,65h1v1h-1z M86,65h1v1h-1z M87,65h1v1h-1z M6,66h1v1h-1z M9,66h1v1h-1z M10,66h1v1h-1z M14,66h1v1h-1z M16,66h1v1h-1z M17,66h1v1h-1z M19,66h1v1h-1z M20,66h1v1h-1z M22,66h1v1h-1z M23,66h1v1h-1z M24,66h1v1h-1z M25,66h1v1h-1z M26,66h1v1h-1z M27,66h1v1h-1z M30,66h1v1h-1z M34,66h1v1h-1z M35,66h1v1h-1z M36,66h1v1h-1z M37,66h1v1h-1z M38,66h1v1h-1z M40,66h1v1h-1z M41,66h1v1h-1z M42,66h1v1h-1z M43,66h1v1h-1z M45,66h1v1h-1z M48,66h1v1h-1z M49,66h1v1h-1z M50,66h1v1h-1z M51,66h1v1h-1z M54,66h1v1h-1z M56,66h1v1h-1z M58,66h1v1h-1z M59,66h1v1h-1z M65,66h1v1h-1z M68,66h1v1h-1z M69,66h1v1h-1z M71,66h1v1h-1z M72,66h1v1h-1z M73,66h1v1h-1z M74,66h1v1h-1z M78,66h1v1h-1z M79,66h1v1h-1z M81,66h1v1h-1z M82,66h1v1h-1z M86,66h1v1h-1z M87,66h1v1h-1z M88,66h1v1h-1z M8,67h1v1h-1z M9,67h1v1h-1z M12,67h1v1h-1z M13,67h1v1h-1z M14,67h1v1h-1z M15,67h1v1h-1z M18,67h1v1h-1z M19,67h1v1h-1z M20,67h1v1h-1z M21,67h1v1h-1z M22,67h1v1h-1z M23,67h1v1h-1z M24,67h1v1h-1z M25,67h1v1h-1z M27,67h1v1h-1z M30,67h1v1h-1z M31,67h1v1h-1z M33,67h1v1h-1z M35,67h1v1h-1z M39,67h1v1h-1z M40,67h1v1h-1z M41,67h1v1h-1z M44,67h1v1h-1z M45,67h1v1h-1z M47,67h1v1h-1z M48,67h1v1h-1z M49,67h1v1h-1z M50,67h1v1h-1z M51,67h1v1h-1z M54,67h1v1h-1z M62,67h1v1h-1z M67,67h1v1h-1z M68,67h1v1h-1z M70,67h1v1h-1z M72,67h1v1h-1z M73,67h1v1h-1z M74,67h1v1h-1z M78,67h1v1h-1z M79,67h1v1h-1z M80,67h1v1h-1z M81,67h1v1h-1z M85,67h1v1h-1z M88,67h1v1h-1z M4,68h1v1h-1z M5,68h1v1h-1z M6,68h1v1h-1z M7,68h1v1h-1z M8,68h1v1h-1z M10,68h1v1h-1z M19,68h1v1h-1z M21,68h1v1h-1z M22,68h1v1h-1z M23,68h1v1h-1z M24,68h1v1h-1z M25,68h1v1h-1z M27,68h1v1h-1z M28,68h1v1h-1z M31,68h1v1h-1z M32,68h1v1h-1z M34,68h1v1h-1z M35,68h1v1h-1z M36,68h1v1h-1z M38,68h1v1h-1z M39,68h1v1h-1z M40,68h1v1h-1z M41,68h1v1h-1z M45,68h1v1h-1z M46,68h1v1h-1z M47,68h1v1h-1z M50,68h1v1h-1z M52,68h1v1h-1z M54,68h1v1h-1z M55,68h1v1h-1z M57,68h1v1h-1z M59,68h1v1h-1z M60,68h1v1h-1z M64,68h1v1h-1z M65,68h1v1h-1z M66,68h1v1h-1z M67,68h1v1h-1z M70,68h1v1h-1z M72,68h1v1h-1z M73,68h1v1h-1z M74,68h1v1h-1z M76,68h1v1h-1z M77,68h1v1h-1z M80,68h1v1h-1z M81,68h1v1h-1z M82,68h1v1h-1z M83,68h1v1h-1z M84,68h1v1h-1z M85,68h1v1h-1z M86,68h1v1h-1z M88,68h1v1h-1z M4,69h1v1h-1z M8,69h1v1h-1z M13,69h1v1h-1z M16,69h1v1h-1z M17,69h1v1h-1z M19,69h1v1h-1z M20,69h1v1h-1z M27,69h1v1h-1z M28,69h1v1h-1z M29,69h1v1h-1z M30,69h1v1h-1z M35,69h1v1h-1z M36,69h1v1h-1z M37,69h1v1h-1z M38,69h1v1h-1z M39,69h1v1h-1z M41,69h1v1h-1z M44,69h1v1h-1z M45,69h1v1h-1z M46,69h1v1h-1z M47,69h1v1h-1z M51,69h1v1h-1z M53,69h1v1h-1z M55,69h1v1h-1z M61,69h1v1h-1z M62,69h1v1h-1z M64,69h1v1h-1z M66,69h1v1h-1z M71,69h1v1h-1z M72,69h1v1h-1z M73,69h1v1h-1z M76,69h1v1h-1z M81,69h1v1h-1z M82,69h1v1h-1z M83,69h1v1h-1z M86,69h1v1h-1z M88,69h1v1h-1z M7,70h1v1h-1z M9,70h1v1h-1z M10,70h1v1h-1z M11,70h1v1h-1z M12,70h1v1h-1z M14,70h1v1h-1z M16,70h1v1h-1z M18,70h1v1h-1z M19,70h1v1h-1z M20,70h1v1h-1z M21,70h1v1h-1z M23,70h1v1h-1z M24,70h1v1h-1z M27,70h1v1h-1z M29,70h1v1h-1z M30,70h1v1h-1z M31,70h1v1h-1z M35,70h1v1h-1z M36,70h1v1h-1z M37,70h1v1h-1z M39,70h1v1h-1z M45,70h1v1h-1z M47,70h1v1h-1z M48,70h1v1h-1z M49,70h1v1h-1z M50,70h1v1h-1z M51,70h1v1h-1z M55,70h1v1h-1z M59,70h1v1h-1z M61,70h1v1h-1z M62,70h1v1h-1z M63,70h1v1h-1z M65,70h1v1h-1z M66,70h1v1h-1z M67,70h1v1h-1z M68,70h1v1h-1z M69,70h1v1h-1z M72,70h1v1h-1z M73,70h1v1h-1z M74,70h1v1h-1z M75,70h1v1h-1z M77,70h1v1h-1z M78,70h1v1h-1z M79,70h1v1h-1z M80,70h1v1h-1z M83,70h1v1h-1z M87,70h1v1h-1z M88,70h1v1h-1z M4,71h1v1h-1z M5,71h1v1h-1z M7,71h1v1h-1z M9,71h1v1h-1z M13,71h1v1h-1z M14,71h1v1h-1z M16,71h1v1h-1z M17,71h1v1h-1z M19,71h1v1h-1z M21,71h1v1h-1z M27,71h1v1h-1z M31,71h1v1h-1z M32,71h1v1h-1z M33,71h1v1h-1z M34,71h1v1h-1z M36,71h1v1h-1z M39,71h1v1h-1z M42,71h1v1h-1z M44,71h1v1h-1z M50,71h1v1h-1z M51,71h1v1h-1z M52,71h1v1h-1z M62,71h1v1h-1z M65,71h1v1h-1z M66,71h1v1h-1z M69,71h1v1h-1z M71,71h1v1h-1z M73,71h1v1h-1z M75,71h1v1h-1z M77,71h1v1h-1z M79,71h1v1h-1z M81,71h1v1h-1z M83,71h1v1h-1z M5,72h1v1h-1z M6,72h1v1h-1z M7,72h1v1h-1z M10,72h1v1h-1z M12,72h1v1h-1z M13,72h1v1h-1z M20,72h1v1h-1z M21,72h1v1h-1z M24,72h1v1h-1z M26,72h1v1h-1z M28,72h1v1h-1z M31,72h1v1h-1z M37,72h1v1h-1z M38,72h1v1h-1z M39,72h1v1h-1z M40,72h1v1h-1z M41,72h1v1h-1z M42,72h1v1h-1z M47,72h1v1h-1z M51,72h1v1h-1z M52,72h1v1h-1z M53,72h1v1h-1z M60,72h1v1h-1z M62,72h1v1h-1z M64,72h1v1h-1z M65,72h1v1h-1z M66,72h1v1h-1z M67,72h1v1h-1z M68,72h1v1h-1z M70,72h1v1h-1z M74,72h1v1h-1z M78,72h1v1h-1z M79,72h1v1h-1z M82,72h1v1h-1z M84,72h1v1h-1z M87,72h1v1h-1z M88,72h1v1h-1z M8,73h1v1h-1z M9,73h1v1h-1z M11,73h1v1h-1z M12,73h1v1h-1z M13,73h1v1h-1z M15,73h1v1h-1z M16,73h1v1h-1z M17,73h1v1h-1z M18,73h1v1h-1z M20,73h1v1h-1z M21,73h1v1h-1z M22,73h1v1h-1z M25,73h1v1h-1z M30,73h1v1h-1z M31,73h1v1h-1z M32,73h1v1h-1z M33,73h1v1h-1z M34,73h1v1h-1z M35,73h1v1h-1z M40,73h1v1h-1z M41,73h1v1h-1z M43,73h1v1h-1z M45,73h1v1h-1z M46,73h1v1h-1z M47,73h1v1h-1z M49,73h1v1h-1z M51,73h1v1h-1z M52,73h1v1h-1z M55,73h1v1h-1z M56,73h1v1h-1z M57,73h1v1h-1z M59,73h1v1h-1z M61,73h1v1h-1z M63,73h1v1h-1z M64,73h1v1h-1z M67,73h1v1h-1z M68,73h1v1h-1z M71,73h1v1h-1z M72,73h1v1h-1z M73,73h1v1h-1z M74,73h1v1h-1z M76,73h1v1h-1z M80,73h1v1h-1z M81,73h1v1h-1z M83,73h1v1h-1z M87,73h1v1h-1z M5,74h1v1h-1z M6,74h1v1h-1z M9,74h1v1h-1z M10,74h1v1h-1z M13,74h1v1h-1z M14,74h1v1h-1z M15,74h1v1h-1z M19,74h1v1h-1z M20,74h1v1h-1z M21,74h1v1h-1z M23,74h1v1h-1z M24,74h1v1h-1z M25,74h1v1h-1z M26,74h1v1h-1z M28,74h1v1h-1z M29,74h1v1h-1z M33,74h1v1h-1z M35,74h1v1h-1z M36,74h1v1h-1z M37,74h1v1h-1z M38,74h1v1h-1z M41,74h1v1h-1z M42,74h1v1h-1z M43,74h1v1h-1z M44,74h1v1h-1z M47,74h1v1h-1z M48,74h1v1h-1z M49,74h1v1h-1z M50,74h1v1h-1z M52,74h1v1h-1z M54,74h1v1h-1z M56,74h1v1h-1z M58,74h1v1h-1z M59,74h1v1h-1z M60,74h1v1h-1z M62,74h1v1h-1z M63,74h1v1h-1z M64,74h1v1h-1z M65,74h1v1h-1z M67,74h1v1h-1z M68,74h1v1h-1z M69,74h1v1h-1z M72,74h1v1h-1z M77,74h1v1h-1z M79,74h1v1h-1z M80,74h1v1h-1z M81,74h1v1h-1z M82,74h1v1h-1z M83,74h1v1h-1z M85,74h1v1h-1z M88,74h1v1h-1z M8,75h1v1h-1z M9,75h1v1h-1z M13,75h1v1h-1z M14,75h1v1h-1z M17,75h1v1h-1z M23,75h1v1h-1z M24,75h1v1h-1z M25,75h1v1h-1z M26,75h1v1h-1z M27,75h1v1h-1z M29,75h1v1h-1z M30,75h1v1h-1z M31,75h1v1h-1z M32,75h1v1h-1z M33,75h1v1h-1z M38,75h1v1h-1z M39,75h1v1h-1z M42,75h1v1h-1z M43,75h1v1h-1z M47,75h1v1h-1z M48,75h1v1h-1z M55,75h1v1h-1z M57,75h1v1h-1z M58,75h1v1h-1z M60,75h1v1h-1z M61,75h1v1h-1z M62,75h1v1h-1z M65,75h1v1h-1z M66,75h1v1h-1z M69,75h1v1h-1z M71,75h1v1h-1z M74,75h1v1h-1z M79,75h1v1h-1z M82,75h1v1h-1z M83,75h1v1h-1z M84,75h1v1h-1z M88,75h1v1h-1z M4,76h1v1h-1z M6,76h1v1h-1z M7,76h1v1h-1z M8,76h1v1h-1z M10,76h1v1h-1z M11,76h1v1h-1z M14,76h1v1h-1z M15,76h1v1h-1z M17,76h1v1h-1z M18,76h1v1h-1z M22,76h1v1h-1z M23,76h1v1h-1z M24,76h1v1h-1z M25,76h1v1h-1z M26,76h1v1h-1z M28,76h1v1h-1z M30,76h1v1h-1z M32,76h1v1h-1z M36,76h1v1h-1z M37,76h1v1h-1z M38,76h1v1h-1z M39,76h1v1h-1z M40,76h1v1h-1z M41,76h1v1h-1z M45,76h1v1h-1z M46,76h1v1h-1z M49,76h1v1h-1z M52,76h1v1h-1z M55,76h1v1h-1z M56,76h1v1h-1z M57,76h1v1h-1z M58,76h1v1h-1z M60,76h1v1h-1z M61,76h1v1h-1z M62,76h1v1h-1z M64,76h1v1h-1z M67,76h1v1h-1z M72,76h1v1h-1z M73,76h1v1h-1z M74,76h1v1h-1z M76,76h1v1h-1z M77,76h1v1h-1z M81,76h1v1h-1z M82,76h1v1h-1z M83,76h1v1h-1z M86,76h1v1h-1z M88,76h1v1h-1z M4,77h1v1h-1z M7,77h1v1h-1z M12,77h1v1h-1z M13,77h1v1h-1z M15,77h1v1h-1z M18,77h1v1h-1z M20,77h1v1h-1z M24,77h1v1h-1z M27,77h1v1h-1z M29,77h1v1h-1z M30,77h1v1h-1z M33,77h1v1h-1z M35,77h1v1h-1z M36,77h1v1h-1z M37,77h1v1h-1z M39,77h1v1h-1z M40,77h1v1h-1z M43,77h1v1h-1z M44,77h1v1h-1z M45,77h1v1h-1z M46,77h1v1h-1z M47,77h1v1h-1z M49,77h1v1h-1z M52,77h1v1h-1z M56,77h1v1h-1z M57,77h1v1h-1z M60,77h1v1h-1z M61,77h1v1h-1z M63,77h1v1h-1z M64,77h1v1h-1z M67,77h1v1h-1z M70,77h1v1h-1z M71,77h1v1h-1z M73,77h1v1h-1z M75,77h1v1h-1z M78,77h1v1h-1z M79,77h1v1h-1z M80,77h1v1h-1z M82,77h1v1h-1z M83,77h1v1h-1z M85,77h1v1h-1z M88,77h1v1h-1z M4,78h1v1h-1z M5,78h1v1h-1z M6,78h1v1h-1z M8,78h1v1h-1z M10,78h1v1h-1z M11,78h1v1h-1z M12,78h1v1h-1z M15,78h1v1h-1z M16,78h1v1h-1z M18,78h1v1h-1z M20,78h1v1h-1z M21,78h1v1h-1z M22,78h1v1h-1z M23,78h1v1h-1z M25,78h1v1h-1z M29,78h1v1h-1z M35,78h1v1h-1z M36,78h1v1h-1z M41,78h1v1h-1z M42,78h1v1h-1z M43,78h1v1h-1z M44,78h1v1h-1z M48,78h1v1h-1z M50,78h1v1h-1z M52,78h1v1h-1z M54,78h1v1h-1z M55,78h1v1h-1z M59,78h1v1h-1z M60,78h1v1h-1z M63,78h1v1h-1z M64,78h1v1h-1z M65,78h1v1h-1z M68,78h1v1h-1z M69,78h1v1h-1z M70,78h1v1h-1z M71,78h1v1h-1z M72,78h1v1h-1z M73,78h1v1h-1z M74,78h1v1h-1z M75,78h1v1h-1z M77,78h1v1h-1z M78,78h1v1h-1z M79,78h1v1h-1z M81,78h1v1h-1z M82,78h1v1h-1z M84,78h1v1h-1z M85,78h1v1h-1z M87,78h1v1h-1z M88,78h1v1h-1z M5,79h1v1h-1z M7,79h1v1h-1z M9,79h1v1h-1z M12,79h1v1h-1z M18,79h1v1h-1z M20,79h1v1h-1z M21,79h1v1h-1z M22,79h1v1h-1z M23,79h1v1h-1z M24,79h1v1h-1z M25,79h1v1h-1z M31,79h1v1h-1z M38,79h1v1h-1z M41,79h1v1h-1z M42,79h1v1h-1z M45,79h1v1h-1z M46,79h1v1h-1z M48,79h1v1h-1z M50,79h1v1h-1z M53,79h1v1h-1z M62,79h1v1h-1z M63,79h1v1h-1z M64,79h1v1h-1z M70,79h1v1h-1z M71,79h1v1h-1z M72,79h1v1h-1z M73,79h1v1h-1z M75,79h1v1h-1z M78,79h1v1h-1z M79,79h1v1h-1z M81,79h1v1h-1z M83,79h1v1h-1z M84,79h1v1h-1z M4,80h1v1h-1z M10,80h1v1h-1z M13,80h1v1h-1z M14,80h1v1h-1z M15,80h1v1h-1z M16,80h1v1h-1z M18,80h1v1h-1z M19,80h1v1h-1z M20,80h1v1h-1z M21,80h1v1h-1z M22,80h1v1h-1z M23,80h1v1h-1z M26,80h1v1h-1z M30,80h1v1h-1z M32,80h1v1h-1z M33,80h1v1h-1z M34,80h1v1h-1z M35,80h1v1h-1z M36,80h1v1h-1z M38,80h1v1h-1z M39,80h1v1h-1z M40,80h1v1h-1z M42,80h1v1h-1z M45,80h1v1h-1z M46,80h1v1h-1z M47,80h1v1h-1z M51,80h1v1h-1z M52,80h1v1h-1z M53,80h1v1h-1z M54,80h1v1h-1z M56,80h1v1h-1z M57,80h1v1h-1z M58,80h1v1h-1z M59,80h1v1h-1z M60,80h1v1h-1z M62,80h1v1h-1z M66,80h1v1h-1z M67,80h1v1h-1z M70,80h1v1h-1z M72,80h1v1h-1z M76,80h1v1h-1z M78,80h1v1h-1z M80,80h1v1h-1z M81,80h1v1h-1z M82,80h1v1h-1z M83,80h1v1h-1z M84,80h1v1h-1z M85,80h1v1h-1z M86,80h1v1h-1z M87,80h1v1h-1z M88,80h1v1h-1z M12,81h1v1h-1z M14,81h1v1h-1z M16,81h1v1h-1z M18,81h1v1h-1z M24,81h1v1h-1z M30,81h1v1h-1z M32,81h1v1h-1z M36,81h1v1h-1z M37,81h1v1h-1z M38,81h1v1h-1z M39,81h1v1h-1z M46,81h1v1h-1z M48,81h1v1h-1z M49,81h1v1h-1z M51,81h1v1h-1z M53,81h1v1h-1z M55,81h1v1h-1z M56,81h1v1h-1z M60,81h1v1h-1z M61,81h1v1h-1z M62,81h1v1h-1z M64,81h1v1h-1z M67,81h1v1h-1z M68,81h1v1h-1z M72,81h1v1h-1z M73,81h1v1h-1z M78,81h1v1h-1z M80,81h1v1h-1z M84,81h1v1h-1z M85,81h1v1h-1z M88,81h1v1h-1z M4,82h1v1h-1z M5,82h1v1h-1z M6,82h1v1h-1z M7,82h1v1h-1z M8,82h1v1h-1z M9,82h1v1h-1z M10,82h1v1h-1z M13,82h1v1h-1z M15,82h1v1h-1z M19,82h1v1h-1z M21,82h1v1h-1z M23,82h1v1h-1z M24,82h1v1h-1z M25,82h1v1h-1z M30,82h1v1h-1z M31,82h1v1h-1z M32,82h1v1h-1z M34,82h1v1h-1z M36,82h1v1h-1z M37,82h1v1h-1z M38,82h1v1h-1z M41,82h1v1h-1z M42,82h1v1h-1z M47,82h1v1h-1z M49,82h1v1h-1z M50,82h1v1h-1z M51,82h1v1h-1z M55,82h1v1h-1z M56,82h1v1h-1z M58,82h1v1h-1z M60,82h1v1h-1z M64,82h1v1h-1z M66,82h1v1h-1z M67,82h1v1h-1z M69,82h1v1h-1z M72,82h1v1h-1z M74,82h1v1h-1z M75,82h1v1h-1z M77,82h1v1h-1z M78,82h1v1h-1z M80,82h1v1h-1z M82,82h1v1h-1z M84,82h1v1h-1z M85,82h1v1h-1z M87,82h1v1h-1z M88,82h1v1h-1z M4,83h1v1h-1z M10,83h1v1h-1z M12,83h1v1h-1z M13,83h1v1h-1z M14,83h1v1h-1z M17,83h1v1h-1z M18,83h1v1h-1z M19,83h1v1h-1z M20,83h1v1h-1z M22,83h1v1h-1z M23,83h1v1h-1z M24,83h1v1h-1z M25,83h1v1h-1z M31,83h1v1h-1z M32,83h1v1h-1z M36,83h1v1h-1z M37,83h1v1h-1z M39,83h1v1h-1z M41,83h1v1h-1z M42,83h1v1h-1z M44,83h1v1h-1z M45,83h1v1h-1z M49,83h1v1h-1z M51,83h1v1h-1z M53,83h1v1h-1z M54,83h1v1h-1z M55,83h1v1h-1z M56,83h1v1h-1z M60,83h1v1h-1z M61,83h1v1h-1z M63,83h1v1h-1z M64,83h1v1h-1z M66,83h1v1h-1z M68,83h1v1h-1z M71,83h1v1h-1z M72,83h1v1h-1z M77,83h1v1h-1z M78,83h1v1h-1z M80,83h1v1h-1z M84,83h1v1h-1z M4,84h1v1h-1z M6,84h1v1h-1z M7,84h1v1h-1z M8,84h1v1h-1z M10,84h1v1h-1z M12,84h1v1h-1z M15,84h1v1h-1z M20,84h1v1h-1z M22,84h1v1h-1z M25,84h1v1h-1z M30,84h1v1h-1z M31,84h1v1h-1z M32,84h1v1h-1z M33,84h1v1h-1z M34,84h1v1h-1z M35,84h1v1h-1z M36,84h1v1h-1z M39,84h1v1h-1z M40,84h1v1h-1z M41,84h1v1h-1z M45,84h1v1h-1z M47,84h1v1h-1z M49,84h1v1h-1z M50,84h1v1h-1z M52,84h1v1h-1z M53,84h1v1h-1z M56,84h1v1h-1z M57,84h1v1h-1z M58,84h1v1h-1z M59,84h1v1h-1z M60,84h1v1h-1z M64,84h1v1h-1z M65,84h1v1h-1z M67,84h1v1h-1z M68,84h1v1h-1z M69,84h1v1h-1z M70,84h1v1h-1z M72,84h1v1h-1z M73,84h1v1h-1z M74,84h1v1h-1z M79,84h1v1h-1z M80,84h1v1h-1z M81,84h1v1h-1z M82,84h1v1h-1z M83,84h1v1h-1z M84,84h1v1h-1z M85,84h1v1h-1z M4,85h1v1h-1z M6,85h1v1h-1z M7,85h1v1h-1z M8,85h1v1h-1z M10,85h1v1h-1z M12,85h1v1h-1z M13,85h1v1h-1z M15,85h1v1h-1z M16,85h1v1h-1z M18,85h1v1h-1z M20,85h1v1h-1z M21,85h1v1h-1z M23,85h1v1h-1z M25,85h1v1h-1z M26,85h1v1h-1z M28,85h1v1h-1z M33,85h1v1h-1z M37,85h1v1h-1z M39,85h1v1h-1z M41,85h1v1h-1z M43,85h1v1h-1z M44,85h1v1h-1z M45,85h1v1h-1z M46,85h1v1h-1z M47,85h1v1h-1z M48,85h1v1h-1z M49,85h1v1h-1z M55,85h1v1h-1z M56,85h1v1h-1z M58,85h1v1h-1z M61,85h1v1h-1z M63,85h1v1h-1z M70,85h1v1h-1z M73,85h1v1h-1z M74,85h1v1h-1z M75,85h1v1h-1z M76,85h1v1h-1z M79,85h1v1h-1z M81,85h1v1h-1z M82,85h1v1h-1z M84,85h1v1h-1z M86,85h1v1h-1z M88,85h1v1h-1z M4,86h1v1h-1z M6,86h1v1h-1z M7,86h1v1h-1z M8,86h1v1h-1z M10,86h1v1h-1z M12,86h1v1h-1z M15,86h1v1h-1z M18,86h1v1h-1z M19,86h1v1h-1z M22,86h1v1h-1z M23,86h1v1h-1z M24,86h1v1h-1z M26,86h1v1h-1z M27,86h1v1h-1z M28,86h1v1h-1z M29,86h1v1h-1z M31,86h1v1h-1z M32,86h1v1h-1z M35,86h1v1h-1z M36,86h1v1h-1z M40,86h1v1h-1z M41,86h1v1h-1z M43,86h1v1h-1z M44,86h1v1h-1z M47,86h1v1h-1z M48,86h1v1h-1z M50,86h1v1h-1z M53,86h1v1h-1z M54,86h1v1h-1z M55,86h1v1h-1z M56,86h1v1h-1z M59,86h1v1h-1z M60,86h1v1h-1z M61,86h1v1h-1z M62,86h1v1h-1z M64,86h1v1h-1z M66,86h1v1h-1z M69,86h1v1h-1z M73,86h1v1h-1z M74,86h1v1h-1z M77,86h1v1h-1z M79,86h1v1h-1z M81,86h1v1h-1z M83,86h1v1h-1z M85,86h1v1h-1z M88,86h1v1h-1z M4,87h1v1h-1z M10,87h1v1h-1z M14,87h1v1h-1z M16,87h1v1h-1z M17,87h1v1h-1z M22,87h1v1h-1z M23,87h1v1h-1z M28,87h1v1h-1z M30,87h1v1h-1z M31,87h1v1h-1z M32,87h1v1h-1z M33,87h1v1h-1z M34,87h1v1h-1z M35,87h1v1h-1z M37,87h1v1h-1z M38,87h1v1h-1z M40,87h1v1h-1z M41,87h1v1h-1z M42,87h1v1h-1z M43,87h1v1h-1z M44,87h1v1h-1z M46,87h1v1h-1z M47,87h1v1h-1z M48,87h1v1h-1z M49,87h1v1h-1z M52,87h1v1h-1z M54,87h1v1h-1z M55,87h1v1h-1z M56,87h1v1h-1z M58,87h1v1h-1z M59,87h1v1h-1z M61,87h1v1h-1z M63,87h1v1h-1z M69,87h1v1h-1z M70,87h1v1h-1z M72,87h1v1h-1z M83,87h1v1h-1z M88,87h1v1h-1z M4,88h1v1h-1z M5,88h1v1h-1z M6,88h1v1h-1z M7,88h1v1h-1z M8,88h1v1h-1z M9,88h1v1h-1z M10,88h1v1h-1z M12,88h1v1h-1z M14,88h1v1h-1z M15,88h1v1h-1z M17,88h1v1h-1z M18,88h1v1h-1z M20,88h1v1h-1z M24,88h1v1h-1z M29,88h1v1h-1z M31,88h1v1h-1z M32,88h1v1h-1z M34,88h1v1h-1z M40,88h1v1h-1z M42,88h1v1h-1z M50,88h1v1h-1z M51,88h1v1h-1z M52,88h1v1h-1z M53,88h1v1h-1z M54,88h1v1h-1z M55,88h1v1h-1z M57,88h1v1h-1z M58,88h1v1h-1z M62,88h1v1h-1z M64,88h1v1h-1z M67,88h1v1h-1z M69,88h1v1h-1z M70,88h1v1h-1z M72,88h1v1h-1z M74,88h1v1h-1z M77,88h1v1h-1z M78,88h1v1h-1z M82,88h1v1h-1z M85,88h1v1h-1z M86,88h1v1h-1z M87,88h1v1h-1z M88,88h1v1h-1z" fill="#000000"/>
</svg>